<svg width="119" height="45" viewBox="0 0 119 45" fill="none" xmlns="http://www.w3.org/2000/svg">
<path d="M7.34783 1.78783C8.22783 1.78783 8.97583 1.94916 9.59183 2.27183C10.2078 2.57983 10.6992 3.02716 11.0658 3.61383C11.4472 4.20049 11.7185 4.89716 11.8798 5.70383C12.0558 6.49583 12.1438 7.39783 12.1438 8.40983C12.1438 9.40716 12.0558 10.3018 11.8798 11.0938C11.7185 11.8858 11.4472 12.5752 11.0658 13.1618C10.6992 13.7485 10.2078 14.2032 9.59183 14.5258C8.97583 14.8338 8.22783 14.9878 7.34783 14.9878C6.46783 14.9878 5.71983 14.8338 5.10383 14.5258C4.48783 14.2032 3.98916 13.7558 3.60783 13.1838C3.24116 12.5972 2.96983 11.9078 2.79383 11.1158C2.63249 10.3092 2.55183 9.40716 2.55183 8.40983C2.55183 7.39783 2.63249 6.49583 2.79383 5.70383C2.96983 4.89716 3.24116 4.20049 3.60783 3.61383C3.98916 3.02716 4.48783 2.57983 5.10383 2.27183C5.71983 1.94916 6.46783 1.78783 7.34783 1.78783ZM7.34783 0.423828C5.36783 0.423828 3.7985 1.08383 2.63983 2.40383C1.49583 3.72383 0.923828 5.72583 0.923828 8.40983C0.923828 11.0645 1.49583 13.0518 2.63983 14.3718C3.7985 15.6918 5.36783 16.3518 7.34783 16.3518C9.32783 16.3518 10.8898 15.6918 12.0338 14.3718C13.1925 13.0518 13.7718 11.0645 13.7718 8.40983C13.7718 5.72583 13.1925 3.72383 12.0338 2.40383C10.8898 1.08383 9.32783 0.423828 7.34783 0.423828Z" fill="white"/>
<path d="M26.8391 0.775828H15.2891V2.27183H25.2771C24.5731 2.91716 23.8251 3.76049 23.0331 4.80183C22.2558 5.84316 21.5225 6.99449 20.8331 8.25583C20.1438 9.50249 19.5498 10.8005 19.0511 12.1498C18.5671 13.4992 18.2518 14.7825 18.1051 15.9998H19.8651C20.0998 14.4012 20.4958 12.8538 21.0531 11.3578C21.6105 9.86183 22.2411 8.51983 22.9451 7.33183C23.6491 6.12916 24.3385 5.10249 25.0131 4.25183C25.7025 3.40116 26.3111 2.74116 26.8391 2.27183V0.775828Z" fill="white"/>
<path d="M29.8482 15.9998H31.7402V13.5798H29.8482V15.9998Z" fill="white"/>
<path d="M1.24805 41.0005H2.43205V37.1445L4.92805 35.0965L10.224 41.0005H11.904L5.85605 34.2965L11.52 29.5765H9.80805L2.43205 35.7525V29.5765H1.24805V41.0005Z" fill="white"/>
<path d="M12.7394 41.0005H13.9234V32.6805H12.7394V41.0005ZM12.7394 31.2405H13.9234V29.4805H12.7394V31.2405Z" fill="white"/>
<path d="M28.7009 41.0005H29.8849V35.3205C29.8849 34.4351 29.5969 33.7311 29.0209 33.2085C28.4449 32.6858 27.5916 32.4245 26.4609 32.4245C25.6929 32.4245 25.0103 32.6111 24.4129 32.9845C23.8263 33.3578 23.4209 33.7791 23.1969 34.2485C23.0583 33.7578 22.7383 33.3311 22.2369 32.9685C21.7463 32.6058 21.0743 32.4245 20.2209 32.4245C19.3569 32.4245 18.6636 32.5898 18.1409 32.9205C17.6289 33.2511 17.2236 33.6831 16.9249 34.2165H16.8929V32.6805H15.7089V41.0005H16.8929V36.3125C16.8929 35.3845 17.1649 34.6698 17.7089 34.1685C18.2529 33.6671 18.9623 33.4165 19.8369 33.4165C20.6049 33.4165 21.1916 33.6031 21.5969 33.9765C22.0023 34.3391 22.2049 34.8031 22.2049 35.3685V41.0005H23.3889V36.0885C23.3889 35.2671 23.6343 34.6165 24.1249 34.1365C24.6263 33.6565 25.3249 33.4165 26.2209 33.4165C27.0636 33.4165 27.6876 33.6085 28.0929 33.9925C28.4983 34.3765 28.7009 34.9525 28.7009 35.7205V41.0005Z" fill="white"/>
<path d="M36.306 41.0005H37.49V35.4965H45.746V41.0005H46.93V29.5765H45.746V34.4085H37.49V29.5765H36.306V41.0005Z" fill="white"/>
<path d="M49.7924 36.2325C49.8564 35.7418 49.9951 35.3151 50.2084 34.9525C50.4324 34.5898 50.6991 34.2965 51.0084 34.0725C51.3284 33.8485 51.6751 33.6831 52.0484 33.5765C52.4324 33.4698 52.8218 33.4165 53.2164 33.4165C54.0804 33.4165 54.8058 33.6298 55.3924 34.0565C55.7124 34.2911 55.9791 34.5898 56.1924 34.9525C56.4058 35.3045 56.5551 35.7311 56.6404 36.2325H49.7924ZM56.4324 38.3445C56.2191 38.9951 55.8564 39.4805 55.3444 39.8005C54.8324 40.1098 54.0964 40.2645 53.1364 40.2645C52.1124 40.2645 51.2964 39.9658 50.6884 39.3685C50.0911 38.7711 49.7924 38.0245 49.7924 37.1285H57.8244C57.8244 36.2325 57.6858 35.4751 57.4084 34.8565C57.1418 34.2378 56.7791 33.7525 56.3204 33.4005C55.8724 33.0485 55.3764 32.7978 54.8324 32.6485C54.2884 32.4991 53.7231 32.4245 53.1364 32.4245C52.3898 32.4245 51.7284 32.5418 51.1524 32.7765C50.5764 33.0111 50.1018 33.3365 49.7284 33.7525C49.3551 34.1578 49.0724 34.6271 48.8804 35.1605C48.6991 35.6831 48.6084 36.2431 48.6084 36.8405C48.6084 37.3845 48.6884 37.9178 48.8484 38.4405C49.0084 38.9525 49.2644 39.4218 49.6164 39.8485C49.9791 40.2751 50.4538 40.6165 51.0404 40.8725C51.6271 41.1285 52.3258 41.2565 53.1364 41.2565C53.7978 41.2565 54.3844 41.1765 54.8964 41.0165C55.4084 40.8565 55.8404 40.6431 56.1924 40.3765C56.5551 40.0991 56.8484 39.7898 57.0724 39.4485C57.3071 39.1071 57.4884 38.7391 57.6164 38.3445H56.4324Z" fill="white"/>
<path d="M60.1674 36.2325C60.2314 35.7418 60.3701 35.3151 60.5834 34.9525C60.8074 34.5898 61.0741 34.2965 61.3834 34.0725C61.7034 33.8485 62.0501 33.6831 62.4234 33.5765C62.8074 33.4698 63.1968 33.4165 63.5914 33.4165C64.4554 33.4165 65.1808 33.6298 65.7674 34.0565C66.0874 34.2911 66.3541 34.5898 66.5674 34.9525C66.7808 35.3045 66.9301 35.7311 67.0154 36.2325H60.1674ZM66.8074 38.3445C66.5941 38.9951 66.2314 39.4805 65.7194 39.8005C65.2074 40.1098 64.4714 40.2645 63.5114 40.2645C62.4874 40.2645 61.6714 39.9658 61.0634 39.3685C60.4661 38.7711 60.1674 38.0245 60.1674 37.1285H68.1994C68.1994 36.2325 68.0608 35.4751 67.7834 34.8565C67.5168 34.2378 67.1541 33.7525 66.6954 33.4005C66.2474 33.0485 65.7514 32.7978 65.2074 32.6485C64.6634 32.4991 64.0981 32.4245 63.5114 32.4245C62.7648 32.4245 62.1034 32.5418 61.5274 32.7765C60.9514 33.0111 60.4768 33.3365 60.1034 33.7525C59.7301 34.1578 59.4474 34.6271 59.2554 35.1605C59.0741 35.6831 58.9834 36.2431 58.9834 36.8405C58.9834 37.3845 59.0634 37.9178 59.2234 38.4405C59.3834 38.9525 59.6394 39.4218 59.9914 39.8485C60.3541 40.2751 60.8288 40.6165 61.4154 40.8725C62.0021 41.1285 62.7008 41.2565 63.5114 41.2565C64.1728 41.2565 64.7594 41.1765 65.2714 41.0165C65.7834 40.8565 66.2154 40.6431 66.5674 40.3765C66.9301 40.0991 67.2234 39.7898 67.4474 39.4485C67.6821 39.1071 67.8634 38.7391 67.9914 38.3445H66.8074Z" fill="white"/>
<path d="M73.3104 39.6085L69.9184 32.6805H68.6384L72.6864 41.0645L72.1424 42.2165C71.9611 42.6218 71.7477 42.8938 71.5024 43.0325C71.2678 43.1711 70.9318 43.2405 70.4944 43.2405C70.2704 43.2405 69.9878 43.2298 69.6464 43.2085V44.2005C69.8811 44.2218 70.2598 44.2325 70.7824 44.2325C71.4331 44.2325 71.9238 44.1151 72.2544 43.8805C72.5851 43.6565 72.9051 43.2138 73.2144 42.5525L77.7264 32.6805H76.4464L73.3104 39.6085Z" fill="white"/>
<path d="M79.433 36.8405C79.433 35.8165 79.7477 34.9898 80.377 34.3605C81.0064 33.7311 81.8704 33.4165 82.969 33.4165C84.0677 33.4165 84.9317 33.7311 85.561 34.3605C86.1904 34.9898 86.505 35.8165 86.505 36.8405C86.505 37.8645 86.1904 38.6911 85.561 39.3205C84.9317 39.9498 84.0677 40.2645 82.969 40.2645C81.8704 40.2645 81.0064 39.9498 80.377 39.3205C79.7477 38.6911 79.433 37.8645 79.433 36.8405ZM78.249 36.8405C78.249 37.4271 78.345 37.9871 78.537 38.5205C78.7397 39.0538 79.0384 39.5285 79.433 39.9445C79.8277 40.3498 80.3184 40.6698 80.905 40.9045C81.5024 41.1391 82.1904 41.2565 82.969 41.2565C83.7477 41.2565 84.4357 41.1391 85.033 40.9045C85.6304 40.6698 86.1264 40.3498 86.521 39.9445C86.9157 39.5285 87.209 39.0538 87.401 38.5205C87.593 37.9871 87.689 37.4271 87.689 36.8405C87.689 36.2538 87.593 35.6938 87.401 35.1605C87.209 34.6271 86.9157 34.1578 86.521 33.7525C86.1264 33.3365 85.6304 33.0111 85.033 32.7765C84.4357 32.5418 83.7477 32.4245 82.969 32.4245C82.1904 32.4245 81.5024 32.5418 80.905 32.7765C80.3184 33.0111 79.8277 33.3365 79.433 33.7525C79.0384 34.1578 78.7397 34.6271 78.537 35.1605C78.345 35.6938 78.249 36.2538 78.249 36.8405Z" fill="white"/>
<path d="M96.2965 41.0005H97.4805V32.6805H96.2965V37.1925C96.2965 38.1631 96.0139 38.9205 95.4485 39.4645C94.8939 39.9978 94.0512 40.2645 92.9205 40.2645C92.1205 40.2645 91.5019 40.0938 91.0645 39.7525C90.6272 39.4005 90.4085 38.8298 90.4085 38.0405V32.6805H89.2245V37.8325C89.2245 38.3551 89.2832 38.8245 89.4005 39.2405C89.5285 39.6458 89.7259 40.0031 89.9925 40.3125C90.2699 40.6111 90.6432 40.8405 91.1125 41.0005C91.5819 41.1711 92.1525 41.2565 92.8245 41.2565C93.6779 41.2565 94.4139 41.0645 95.0325 40.6805C95.6619 40.2965 96.0725 39.8591 96.2645 39.3685H96.2965V41.0005Z" fill="white"/>
<path d="M106.375 41.0005H107.559V35.8485C107.559 35.3258 107.495 34.8618 107.367 34.4565C107.249 34.0405 107.052 33.6831 106.775 33.3845C106.508 33.0751 106.14 32.8405 105.671 32.6805C105.201 32.5098 104.631 32.4245 103.959 32.4245C103.105 32.4245 102.369 32.6165 101.751 33.0005C101.132 33.3845 100.721 33.8218 100.519 34.3125H100.487V32.6805H99.3027V41.0005H100.487V36.4885C100.487 35.5178 100.764 34.7658 101.319 34.2325C101.884 33.6885 102.732 33.4165 103.863 33.4165C104.663 33.4165 105.281 33.5925 105.719 33.9445C106.156 34.2858 106.375 34.8511 106.375 35.6405V41.0005Z" fill="white"/>
<path d="M117.109 36.6645C117.109 37.6991 116.783 38.5151 116.133 39.1125C115.482 39.7098 114.655 40.0085 113.653 40.0085C113.141 40.0085 112.671 39.9498 112.245 39.8325C111.818 39.7045 111.445 39.5071 111.125 39.2405C110.815 38.9738 110.57 38.6271 110.389 38.2005C110.218 37.7631 110.133 37.2511 110.133 36.6645C110.133 35.6511 110.442 34.8565 111.061 34.2805C111.679 33.7045 112.511 33.4165 113.557 33.4165C114.687 33.4165 115.562 33.7258 116.181 34.3445C116.799 34.9631 117.109 35.7365 117.109 36.6645ZM117.077 34.2965H117.045C116.778 33.6778 116.325 33.2138 115.685 32.9045C115.055 32.5845 114.325 32.4245 113.493 32.4245C112.735 32.4245 112.069 32.5365 111.493 32.7605C110.917 32.9845 110.437 33.2991 110.053 33.7045C109.679 34.0991 109.402 34.5525 109.221 35.0645C109.039 35.5658 108.949 36.0991 108.949 36.6645C108.949 37.4431 109.071 38.1151 109.317 38.6805C109.573 39.2351 109.909 39.6831 110.325 40.0245C110.751 40.3658 111.221 40.6165 111.733 40.7765C112.255 40.9258 112.799 41.0005 113.365 41.0005C113.877 41.0005 114.335 40.9471 114.741 40.8405C115.157 40.7231 115.514 40.5738 115.813 40.3925C116.111 40.2111 116.362 40.0085 116.565 39.7845C116.767 39.5605 116.927 39.3365 117.045 39.1125H117.077V40.6005C117.077 41.5925 116.778 42.3445 116.181 42.8565C115.583 43.3685 114.735 43.6245 113.637 43.6245C112.975 43.6245 112.431 43.5765 112.005 43.4805C111.589 43.3845 111.274 43.2511 111.061 43.0805C110.858 42.9098 110.714 42.7285 110.629 42.5365C110.554 42.3551 110.485 42.1151 110.421 41.8165H109.333C109.365 42.1258 109.429 42.4191 109.525 42.6965C109.631 42.9845 109.829 43.2671 110.117 43.5445C110.405 43.8325 110.831 44.0671 111.397 44.2485C111.973 44.4298 112.703 44.5205 113.589 44.5205C114.186 44.5205 114.757 44.4565 115.301 44.3285C115.845 44.2111 116.341 44.0085 116.789 43.7205C117.237 43.4325 117.594 43.0378 117.861 42.5365C118.127 42.0351 118.261 41.4165 118.261 40.6805V32.6805H117.077V34.2965Z" fill="white"/>
</svg>
