<svg width="97" height="45" viewBox="0 0 97 45" fill="none" xmlns="http://www.w3.org/2000/svg">
<path d="M7.34801 1.78801C8.22801 1.78801 8.97601 1.94934 9.59201 2.27201C10.208 2.58001 10.6993 3.02734 11.066 3.61401C11.4473 4.20068 11.7187 4.89734 11.88 5.70401C12.056 6.49601 12.144 7.39801 12.144 8.41001C12.144 9.40734 12.056 10.302 11.88 11.094C11.7187 11.886 11.4473 12.5753 11.066 13.162C10.6993 13.7487 10.208 14.2033 9.59201 14.526C8.97601 14.834 8.22801 14.988 7.34801 14.988C6.46801 14.988 5.72001 14.834 5.10401 14.526C4.48801 14.2033 3.98934 13.756 3.60801 13.184C3.24134 12.5973 2.97001 11.908 2.79401 11.116C2.63268 10.3093 2.55201 9.40734 2.55201 8.41001C2.55201 7.39801 2.63268 6.49601 2.79401 5.70401C2.97001 4.89734 3.24134 4.20068 3.60801 3.61401C3.98934 3.02734 4.48801 2.58001 5.10401 2.27201C5.72001 1.94934 6.46801 1.78801 7.34801 1.78801ZM7.34801 0.424011C5.36801 0.424011 3.79868 1.08401 2.64001 2.40401C1.49601 3.72401 0.924011 5.72601 0.924011 8.41001C0.924011 11.0647 1.49601 13.052 2.64001 14.372C3.79868 15.692 5.36801 16.352 7.34801 16.352C9.32801 16.352 10.89 15.692 12.034 14.372C13.1927 13.052 13.772 11.0647 13.772 8.41001C13.772 5.72601 13.1927 3.72401 12.034 2.40401C10.89 1.08401 9.32801 0.424011 7.34801 0.424011Z" fill="white"/>
<path d="M27.7633 14.504H17.8633C17.966 14.1813 18.1273 13.8807 18.3473 13.602C18.582 13.3087 18.912 13.008 19.3373 12.7C19.7773 12.392 20.3273 12.04 20.9873 11.644C21.662 11.248 22.5933 10.7273 23.7813 10.082C24.3973 9.74468 24.918 9.42934 25.3433 9.13601C25.7833 8.84268 26.172 8.51268 26.5093 8.14601C26.8467 7.76468 27.1107 7.33201 27.3013 6.84801C27.492 6.34934 27.5873 5.77734 27.5873 5.13201C27.5873 4.54534 27.492 3.97334 27.3013 3.41601C27.1107 2.85868 26.7953 2.36001 26.3553 1.92001C25.93 1.46534 25.358 1.10601 24.6393 0.842011C23.9353 0.563345 23.0847 0.424011 22.0873 0.424011C20.21 0.424011 18.7507 0.871345 17.7093 1.76601C16.6827 2.66068 16.1693 4.05401 16.1693 5.94601H17.7973C17.812 5.37401 17.878 4.84601 17.9953 4.36201C18.1273 3.87801 18.3473 3.44534 18.6553 3.06401C18.978 2.66801 19.418 2.36001 19.9753 2.14001C20.5327 1.90534 21.2293 1.78801 22.0653 1.78801C23.2973 1.78801 24.2507 2.06668 24.9253 2.62401C25.6147 3.18134 25.9593 4.01001 25.9593 5.11001C25.9593 5.62334 25.8787 6.07801 25.7173 6.47401C25.556 6.85534 25.292 7.21468 24.9253 7.55201C24.5733 7.88934 24.1113 8.23401 23.5393 8.58601C22.982 8.92334 22.2193 9.34868 21.2513 9.86201C20.1367 10.4487 19.2273 11.0207 18.5233 11.578C17.8193 12.1207 17.284 12.6413 16.9173 13.14C16.5507 13.624 16.294 14.086 16.1473 14.526C16.0007 14.966 15.898 15.4573 15.8393 16H27.7633V14.504Z" fill="white"/>
<path d="M31.5026 16H33.3946V13.58H31.5026V16Z" fill="white"/>
<path d="M1.24805 41.0005H2.43205V37.1445L4.92805 35.0965L10.224 41.0005H11.904L5.85605 34.2965L11.52 29.5765H9.80805L2.43205 35.7525V29.5765H1.24805V41.0005Z" fill="white"/>
<path d="M12.7394 41.0005H13.9234V32.6805H12.7394V41.0005ZM12.7394 31.2405H13.9234V29.4805H12.7394V31.2405Z" fill="white"/>
<path d="M28.7009 41.0005H29.8849V35.3205C29.8849 34.4351 29.5969 33.7311 29.0209 33.2085C28.4449 32.6858 27.5916 32.4245 26.4609 32.4245C25.6929 32.4245 25.0103 32.6111 24.4129 32.9845C23.8263 33.3578 23.4209 33.7791 23.1969 34.2485C23.0583 33.7578 22.7383 33.3311 22.2369 32.9685C21.7463 32.6058 21.0743 32.4245 20.2209 32.4245C19.3569 32.4245 18.6636 32.5898 18.1409 32.9205C17.6289 33.2511 17.2236 33.6831 16.9249 34.2165H16.8929V32.6805H15.7089V41.0005H16.8929V36.3125C16.8929 35.3845 17.1649 34.6698 17.7089 34.1685C18.2529 33.6671 18.9623 33.4165 19.8369 33.4165C20.6049 33.4165 21.1916 33.6031 21.5969 33.9765C22.0023 34.3391 22.2049 34.8031 22.2049 35.3685V41.0005H23.3889V36.0885C23.3889 35.2671 23.6343 34.6165 24.1249 34.1365C24.6263 33.6565 25.3249 33.4165 26.2209 33.4165C27.0636 33.4165 27.6876 33.6085 28.0929 33.9925C28.4983 34.3765 28.7009 34.9525 28.7009 35.7205V41.0005Z" fill="white"/>
<path d="M36.306 41.0005H37.49V31.2405H37.522L45.554 41.0005H46.93V29.5765H45.746V39.3365H45.714L37.73 29.5765H36.306V41.0005Z" fill="white"/>
<path d="M55.5204 37.7845C55.5204 38.1898 55.4191 38.5578 55.2164 38.8885C55.0138 39.2085 54.7418 39.4805 54.4004 39.7045C54.0591 39.9178 53.6804 40.0831 53.2644 40.2005C52.8591 40.3071 52.4538 40.3605 52.0484 40.3605C51.3338 40.3605 50.7524 40.2325 50.3044 39.9765C49.8671 39.7205 49.6484 39.2885 49.6484 38.6805C49.6484 38.2005 49.8298 37.8431 50.1924 37.6085C50.5658 37.3631 51.1098 37.2085 51.8244 37.1445L52.0964 37.1125C53.3018 37.0058 54.1124 36.9205 54.5284 36.8565C54.9551 36.7818 55.2858 36.6698 55.5204 36.5205V37.7845ZM49.9204 35.2405C49.9631 34.5898 50.2084 34.1258 50.6564 33.8485C51.1151 33.5605 51.8191 33.4165 52.7684 33.4165C53.7498 33.4165 54.4538 33.5391 54.8804 33.7845C55.3071 34.0298 55.5204 34.4511 55.5204 35.0485C55.5204 35.2725 55.4884 35.4431 55.4244 35.5605C55.3604 35.6778 55.2324 35.7738 55.0404 35.8485C54.8484 35.9231 54.5658 35.9818 54.1924 36.0245C53.8298 36.0671 53.3018 36.1098 52.6084 36.1525C52.0324 36.1845 51.5204 36.2378 51.0724 36.3125C50.6244 36.3765 50.1978 36.4991 49.7924 36.6805C49.3978 36.8511 49.0778 37.1071 48.8324 37.4485C48.5871 37.7898 48.4644 38.2271 48.4644 38.7605C48.4644 39.2085 48.5604 39.5925 48.7524 39.9125C48.9444 40.2325 49.2004 40.4938 49.5204 40.6965C49.8404 40.8885 50.1871 41.0271 50.5604 41.1125C50.9338 41.2085 51.3124 41.2565 51.6964 41.2565C52.3364 41.2565 52.8858 41.1978 53.3444 41.0805C53.8031 40.9738 54.1764 40.8351 54.4644 40.6645C54.7631 40.4831 54.9871 40.3125 55.1364 40.1525C55.2964 39.9818 55.4458 39.7951 55.5844 39.5925H55.6164C55.6164 39.7951 55.6271 39.9818 55.6484 40.1525C55.6804 40.3125 55.7391 40.4618 55.8244 40.6005C55.9098 40.7391 56.0378 40.8511 56.2084 40.9365C56.3898 41.0218 56.6191 41.0645 56.8964 41.0645C57.1311 41.0645 57.4458 41.0271 57.8404 40.9525C57.8618 40.9418 57.8778 40.9365 57.8884 40.9365V40.1365C57.6111 40.1578 57.4031 40.1685 57.2644 40.1685C57.0298 40.1685 56.8591 40.0991 56.7524 39.9605C56.6564 39.8218 56.6084 39.5818 56.6084 39.2405V34.8885C56.6084 34.0565 56.3098 33.4378 55.7124 33.0325C55.1258 32.6271 54.1551 32.4245 52.8004 32.4245C51.4458 32.4245 50.4698 32.6645 49.8724 33.1445C49.2751 33.6138 48.9284 34.3125 48.8324 35.2405H49.9204Z" fill="white"/>
<path d="M62.3417 39.6085L58.9497 32.6805H57.6697L61.7177 41.0645L61.1737 42.2165C60.9923 42.6218 60.779 42.8938 60.5337 43.0325C60.299 43.1711 59.963 43.2405 59.5257 43.2405C59.3017 43.2405 59.019 43.2298 58.6777 43.2085V44.2005C58.9123 44.2218 59.291 44.2325 59.8137 44.2325C60.4643 44.2325 60.955 44.1151 61.2857 43.8805C61.6163 43.6565 61.9363 43.2138 62.2457 42.5525L66.7577 32.6805H65.4777L62.3417 39.6085Z" fill="white"/>
<path d="M68.4643 36.2325C68.5283 35.7418 68.667 35.3151 68.8803 34.9525C69.1043 34.5898 69.371 34.2965 69.6803 34.0725C70.0003 33.8485 70.347 33.6831 70.7203 33.5765C71.1043 33.4698 71.4936 33.4165 71.8883 33.4165C72.7523 33.4165 73.4776 33.6298 74.0643 34.0565C74.3843 34.2911 74.651 34.5898 74.8643 34.9525C75.0776 35.3045 75.227 35.7311 75.3123 36.2325H68.4643ZM75.1043 38.3445C74.891 38.9951 74.5283 39.4805 74.0163 39.8005C73.5043 40.1098 72.7683 40.2645 71.8083 40.2645C70.7843 40.2645 69.9683 39.9658 69.3603 39.3685C68.763 38.7711 68.4643 38.0245 68.4643 37.1285H76.4963C76.4963 36.2325 76.3576 35.4751 76.0803 34.8565C75.8136 34.2378 75.451 33.7525 74.9923 33.4005C74.5443 33.0485 74.0483 32.7978 73.5043 32.6485C72.9603 32.4991 72.395 32.4245 71.8083 32.4245C71.0616 32.4245 70.4003 32.5418 69.8243 32.7765C69.2483 33.0111 68.7736 33.3365 68.4003 33.7525C68.027 34.1578 67.7443 34.6271 67.5523 35.1605C67.371 35.6831 67.2803 36.2431 67.2803 36.8405C67.2803 37.3845 67.3603 37.9178 67.5203 38.4405C67.6803 38.9525 67.9363 39.4218 68.2883 39.8485C68.651 40.2751 69.1256 40.6165 69.7123 40.8725C70.299 41.1285 70.9976 41.2565 71.8083 41.2565C72.4696 41.2565 73.0563 41.1765 73.5683 41.0165C74.0803 40.8565 74.5123 40.6431 74.8643 40.3765C75.227 40.0991 75.5203 39.7898 75.7443 39.4485C75.979 39.1071 76.1603 38.7391 76.2883 38.3445H75.1043Z" fill="white"/>
<path d="M78.8393 36.8405C78.8393 35.8165 79.154 34.9898 79.7833 34.3605C80.4126 33.7311 81.2766 33.4165 82.3753 33.4165C83.474 33.4165 84.338 33.7311 84.9673 34.3605C85.5966 34.9898 85.9113 35.8165 85.9113 36.8405C85.9113 37.8645 85.5966 38.6911 84.9673 39.3205C84.338 39.9498 83.474 40.2645 82.3753 40.2645C81.2766 40.2645 80.4126 39.9498 79.7833 39.3205C79.154 38.6911 78.8393 37.8645 78.8393 36.8405ZM77.6553 36.8405C77.6553 37.4271 77.7513 37.9871 77.9433 38.5205C78.146 39.0538 78.4446 39.5285 78.8393 39.9445C79.234 40.3498 79.7246 40.6698 80.3113 40.9045C80.9086 41.1391 81.5966 41.2565 82.3753 41.2565C83.154 41.2565 83.842 41.1391 84.4393 40.9045C85.0366 40.6698 85.5326 40.3498 85.9273 39.9445C86.322 39.5285 86.6153 39.0538 86.8073 38.5205C86.9993 37.9871 87.0953 37.4271 87.0953 36.8405C87.0953 36.2538 86.9993 35.6938 86.8073 35.1605C86.6153 34.6271 86.322 34.1578 85.9273 33.7525C85.5326 33.3365 85.0366 33.0111 84.4393 32.7765C83.842 32.5418 83.154 32.4245 82.3753 32.4245C81.5966 32.4245 80.9086 32.5418 80.3113 32.7765C79.7246 33.0111 79.234 33.3365 78.8393 33.7525C78.4446 34.1578 78.146 34.6271 77.9433 35.1605C77.7513 35.6938 77.6553 36.2538 77.6553 36.8405Z" fill="white"/>
<path d="M95.7028 41.0005H96.8868V35.8485C96.8868 35.3258 96.8228 34.8618 96.6948 34.4565C96.5775 34.0405 96.3801 33.6831 96.1028 33.3845C95.8361 33.0751 95.4681 32.8405 94.9988 32.6805C94.5295 32.5098 93.9588 32.4245 93.2868 32.4245C92.4335 32.4245 91.6975 32.6165 91.0788 33.0005C90.4601 33.3845 90.0495 33.8218 89.8468 34.3125H89.8148V32.6805H88.6308V41.0005H89.8148V36.4885C89.8148 35.5178 90.0921 34.7658 90.6468 34.2325C91.2121 33.6885 92.0601 33.4165 93.1908 33.4165C93.9908 33.4165 94.6095 33.5925 95.0468 33.9445C95.4841 34.2858 95.7028 34.8511 95.7028 35.6405V41.0005Z" fill="white"/>
</svg>
