<svg width="108" height="45" viewBox="0 0 108 45" fill="none" xmlns="http://www.w3.org/2000/svg">
<path d="M1.05603 41H9.48803V39.912H2.24003V29.576H1.05603V41Z" fill="white"/>
<path d="M11.2924 36.232C11.3564 35.7413 11.4951 35.3146 11.7084 34.952C11.9324 34.5893 12.1991 34.296 12.5084 34.072C12.8284 33.848 13.1751 33.6826 13.5484 33.576C13.9324 33.4693 14.3217 33.416 14.7164 33.416C15.5804 33.416 16.3057 33.6293 16.8924 34.056C17.2124 34.2906 17.4791 34.5893 17.6924 34.952C17.9057 35.304 18.0551 35.7306 18.1404 36.232H11.2924ZM17.9324 38.344C17.7191 38.9946 17.3564 39.48 16.8444 39.8C16.3324 40.1093 15.5964 40.264 14.6364 40.264C13.6124 40.264 12.7964 39.9653 12.1884 39.368C11.5911 38.7706 11.2924 38.024 11.2924 37.128H19.3244C19.3244 36.232 19.1857 35.4746 18.9084 34.856C18.6417 34.2373 18.2791 33.752 17.8204 33.4C17.3724 33.048 16.8764 32.7973 16.3324 32.648C15.7884 32.4986 15.2231 32.424 14.6364 32.424C13.8897 32.424 13.2284 32.5413 12.6524 32.776C12.0764 33.0106 11.6017 33.336 11.2284 33.752C10.8551 34.1573 10.5724 34.6266 10.3804 35.16C10.1991 35.6826 10.1084 36.2426 10.1084 36.84C10.1084 37.384 10.1884 37.9173 10.3484 38.44C10.5084 38.952 10.7644 39.4213 11.1164 39.848C11.4791 40.2746 11.9537 40.616 12.5404 40.872C13.1271 41.128 13.8257 41.256 14.6364 41.256C15.2977 41.256 15.8844 41.176 16.3964 41.016C16.9084 40.856 17.3404 40.6426 17.6924 40.376C18.0551 40.0986 18.3484 39.7893 18.5724 39.448C18.8071 39.1066 18.9884 38.7386 19.1164 38.344H17.9324Z" fill="white"/>
<path d="M21.6674 36.232C21.7314 35.7413 21.8701 35.3146 22.0834 34.952C22.3074 34.5893 22.5741 34.296 22.8834 34.072C23.2034 33.848 23.5501 33.6826 23.9234 33.576C24.3074 33.4693 24.6967 33.416 25.0914 33.416C25.9554 33.416 26.6807 33.6293 27.2674 34.056C27.5874 34.2906 27.8541 34.5893 28.0674 34.952C28.2807 35.304 28.4301 35.7306 28.5154 36.232H21.6674ZM28.3074 38.344C28.0941 38.9946 27.7314 39.48 27.2194 39.8C26.7074 40.1093 25.9714 40.264 25.0114 40.264C23.9874 40.264 23.1714 39.9653 22.5634 39.368C21.9661 38.7706 21.6674 38.024 21.6674 37.128H29.6994C29.6994 36.232 29.5607 35.4746 29.2834 34.856C29.0167 34.2373 28.6541 33.752 28.1954 33.4C27.7474 33.048 27.2514 32.7973 26.7074 32.648C26.1634 32.4986 25.5981 32.424 25.0114 32.424C24.2647 32.424 23.6034 32.5413 23.0274 32.776C22.4514 33.0106 21.9767 33.336 21.6034 33.752C21.2301 34.1573 20.9474 34.6266 20.7554 35.16C20.5741 35.6826 20.4834 36.2426 20.4834 36.84C20.4834 37.384 20.5634 37.9173 20.7234 38.44C20.8834 38.952 21.1394 39.4213 21.4914 39.848C21.8541 40.2746 22.3287 40.616 22.9154 40.872C23.5021 41.128 24.2007 41.256 25.0114 41.256C25.6727 41.256 26.2594 41.176 26.7714 41.016C27.2834 40.856 27.7154 40.6426 28.0674 40.376C28.4301 40.0986 28.7234 39.7893 28.9474 39.448C29.1821 39.1066 29.3634 38.7386 29.4914 38.344H28.3074Z" fill="white"/>
<path d="M35.7435 41H41.4715C42.2502 41 42.9435 40.856 43.5515 40.568C44.1702 40.28 44.6875 39.88 45.1035 39.368C45.5195 38.8453 45.8289 38.2373 46.0315 37.544C46.2449 36.8506 46.3515 36.0986 46.3515 35.288C46.3515 33.4746 45.9195 32.072 45.0555 31.08C44.1915 30.0773 42.9382 29.576 41.2955 29.576H35.7435V41ZM36.9275 30.664H41.2475C42.5489 30.664 43.5089 31.0533 44.1275 31.832C44.7569 32.6 45.0715 33.752 45.0715 35.288C45.0715 36.1306 44.9702 36.8506 44.7675 37.448C44.5755 38.0453 44.3035 38.5253 43.9515 38.888C43.5995 39.2506 43.1942 39.512 42.7355 39.672C42.2875 39.832 41.7915 39.912 41.2475 39.912H36.9275V30.664Z" fill="white"/>
<path d="M48.9487 36.84C48.9487 35.816 49.2633 34.9893 49.8927 34.36C50.522 33.7306 51.386 33.416 52.4847 33.416C53.5833 33.416 54.4473 33.7306 55.0767 34.36C55.706 34.9893 56.0207 35.816 56.0207 36.84C56.0207 37.864 55.706 38.6906 55.0767 39.32C54.4473 39.9493 53.5833 40.264 52.4847 40.264C51.386 40.264 50.522 39.9493 49.8927 39.32C49.2633 38.6906 48.9487 37.864 48.9487 36.84ZM47.7647 36.84C47.7647 37.4266 47.8607 37.9866 48.0527 38.52C48.2553 39.0533 48.554 39.528 48.9487 39.944C49.3433 40.3493 49.834 40.6693 50.4207 40.904C51.018 41.1386 51.706 41.256 52.4847 41.256C53.2633 41.256 53.9513 41.1386 54.5487 40.904C55.146 40.6693 55.642 40.3493 56.0367 39.944C56.4313 39.528 56.7247 39.0533 56.9167 38.52C57.1087 37.9866 57.2047 37.4266 57.2047 36.84C57.2047 36.2533 57.1087 35.6933 56.9167 35.16C56.7247 34.6266 56.4313 34.1573 56.0367 33.752C55.642 33.336 55.146 33.0106 54.5487 32.776C53.9513 32.5413 53.2633 32.424 52.4847 32.424C51.706 32.424 51.018 32.5413 50.4207 32.776C49.834 33.0106 49.3433 33.336 48.9487 33.752C48.554 34.1573 48.2553 34.6266 48.0527 35.16C47.8607 35.6933 47.7647 36.2533 47.7647 36.84Z" fill="white"/>
<path d="M65.8122 41H66.9962V35.848C66.9962 35.3253 66.9322 34.8613 66.8042 34.456C66.6868 34.04 66.4895 33.6826 66.2122 33.384C65.9455 33.0746 65.5775 32.84 65.1082 32.68C64.6388 32.5093 64.0682 32.424 63.3962 32.424C62.5428 32.424 61.8068 32.616 61.1882 33C60.5695 33.384 60.1588 33.8213 59.9562 34.312H59.9242V32.68H58.7402V41H59.9242V36.488C59.9242 35.5173 60.2015 34.7653 60.7562 34.232C61.3215 33.688 62.1695 33.416 63.3002 33.416C64.1002 33.416 64.7188 33.592 65.1562 33.944C65.5935 34.2853 65.8122 34.8506 65.8122 35.64V41Z" fill="white"/>
<path d="M76.5463 36.664C76.5463 37.6986 76.2209 38.5146 75.5703 39.112C74.9196 39.7093 74.0929 40.008 73.0903 40.008C72.5783 40.008 72.1089 39.9493 71.6823 39.832C71.2556 39.704 70.8823 39.5066 70.5623 39.24C70.2529 38.9733 70.0076 38.6266 69.8263 38.2C69.6556 37.7626 69.5703 37.2506 69.5703 36.664C69.5703 35.6506 69.8796 34.856 70.4983 34.28C71.117 33.704 71.9489 33.416 72.9943 33.416C74.1249 33.416 74.9996 33.7253 75.6183 34.344C76.2369 34.9626 76.5463 35.736 76.5463 36.664ZM76.5143 34.296H76.4823C76.2156 33.6773 75.7623 33.2133 75.1223 32.904C74.493 32.584 73.7623 32.424 72.9303 32.424C72.173 32.424 71.5063 32.536 70.9303 32.76C70.3543 32.984 69.8743 33.2986 69.4903 33.704C69.1169 34.0986 68.8396 34.552 68.6583 35.064C68.4769 35.5653 68.3863 36.0986 68.3863 36.664C68.3863 37.4426 68.5089 38.1146 68.7543 38.68C69.0103 39.2346 69.3463 39.6826 69.7623 40.024C70.1889 40.3653 70.6583 40.616 71.1703 40.776C71.6929 40.9253 72.237 41 72.8023 41C73.3143 41 73.7729 40.9466 74.1783 40.84C74.5943 40.7226 74.9516 40.5733 75.2503 40.392C75.549 40.2106 75.7996 40.008 76.0023 39.784C76.2049 39.56 76.365 39.336 76.4823 39.112H76.5143V40.6C76.5143 41.592 76.2156 42.344 75.6183 42.856C75.0209 43.368 74.1729 43.624 73.0743 43.624C72.4129 43.624 71.8689 43.576 71.4423 43.48C71.0263 43.384 70.7116 43.2506 70.4983 43.08C70.2956 42.9093 70.1516 42.728 70.0663 42.536C69.9916 42.3546 69.9223 42.1146 69.8583 41.816H68.7703C68.8023 42.1253 68.8663 42.4186 68.9623 42.696C69.0689 42.984 69.2663 43.2666 69.5543 43.544C69.8423 43.832 70.269 44.0666 70.8343 44.248C71.4103 44.4293 72.141 44.52 73.0263 44.52C73.6236 44.52 74.1943 44.456 74.7383 44.328C75.2823 44.2106 75.7783 44.008 76.2263 43.72C76.6743 43.432 77.0316 43.0373 77.2983 42.536C77.5649 42.0346 77.6983 41.416 77.6983 40.68V32.68H76.5143V34.296Z" fill="white"/>
<path d="M79.4902 41H80.6742V36.488C80.6742 35.5173 80.9515 34.7653 81.5062 34.232C82.0715 33.688 82.9195 33.416 84.0502 33.416C84.8502 33.416 85.4688 33.592 85.9062 33.944C86.3435 34.2853 86.5622 34.8506 86.5622 35.64V41H87.7462V35.848C87.7462 35.3253 87.6822 34.8613 87.5542 34.456C87.4368 34.04 87.2395 33.6826 86.9622 33.384C86.6955 33.0746 86.3275 32.84 85.8582 32.68C85.3888 32.5093 84.8182 32.424 84.1462 32.424C83.2928 32.424 82.5568 32.616 81.9382 33C81.3195 33.384 80.9088 33.8213 80.7062 34.312H80.6742V29.48H79.4902V41Z" fill="white"/>
<path d="M96.6403 41H97.8243V32.68H96.6403V37.192C96.6403 38.1626 96.3576 38.92 95.7923 39.464C95.2376 39.9973 94.395 40.264 93.2643 40.264C92.4643 40.264 91.8456 40.0933 91.4083 39.752C90.9709 39.4 90.7523 38.8293 90.7523 38.04V32.68H89.5683V37.832C89.5683 38.3546 89.6269 38.824 89.7443 39.24C89.8723 39.6453 90.0696 40.0026 90.3363 40.312C90.6136 40.6106 90.987 40.84 91.4563 41C91.9256 41.1706 92.4963 41.256 93.1683 41.256C94.0216 41.256 94.7576 41.064 95.3763 40.68C96.0056 40.296 96.4163 39.8586 96.6083 39.368H96.6403V41Z" fill="white"/>
<path d="M106.718 41H107.902V35.848C107.902 35.3253 107.838 34.8613 107.71 34.456C107.593 34.04 107.396 33.6826 107.118 33.384C106.852 33.0746 106.484 32.84 106.014 32.68C105.545 32.5093 104.974 32.424 104.302 32.424C103.449 32.424 102.713 32.616 102.094 33C101.476 33.384 101.065 33.8213 100.862 34.312H100.83V32.68H99.6464V41H100.83V36.488C100.83 35.5173 101.108 34.7653 101.662 34.232C102.228 33.688 103.076 33.416 104.206 33.416C105.006 33.416 105.625 33.592 106.062 33.944C106.5 34.2853 106.718 34.8506 106.718 35.64V41Z" fill="white"/>
<path d="M7.34801 1.78801C8.22801 1.78801 8.97601 1.94934 9.59201 2.27201C10.208 2.58001 10.6993 3.02734 11.066 3.61401C11.4473 4.20068 11.7187 4.89734 11.88 5.70401C12.056 6.49601 12.144 7.39801 12.144 8.41001C12.144 9.40734 12.056 10.302 11.88 11.094C11.7187 11.886 11.4473 12.5753 11.066 13.162C10.6993 13.7487 10.208 14.2033 9.59201 14.526C8.97601 14.834 8.22801 14.988 7.34801 14.988C6.46801 14.988 5.72001 14.834 5.10401 14.526C4.48801 14.2033 3.98934 13.756 3.60801 13.184C3.24134 12.5973 2.97001 11.908 2.79401 11.116C2.63268 10.3093 2.55201 9.40734 2.55201 8.41001C2.55201 7.39801 2.63268 6.49601 2.79401 5.70401C2.97001 4.89734 3.24134 4.20068 3.60801 3.61401C3.98934 3.02734 4.48801 2.58001 5.10401 2.27201C5.72001 1.94934 6.46801 1.78801 7.34801 1.78801ZM7.34801 0.424011C5.36801 0.424011 3.79868 1.08401 2.64001 2.40401C1.49601 3.72401 0.924011 5.72601 0.924011 8.41001C0.924011 11.0647 1.49601 13.052 2.64001 14.372C3.79868 15.692 5.36801 16.352 7.34801 16.352C9.32801 16.352 10.89 15.692 12.034 14.372C13.1927 13.052 13.772 11.0647 13.772 8.41001C13.772 5.72601 13.1927 3.72401 12.034 2.40401C10.89 1.08401 9.32801 0.424011 7.34801 0.424011Z" fill="white"/>
<path d="M23.8913 10.808H17.2473L23.8473 2.71201H23.8913V10.808ZM23.8913 16H25.3873V12.172H28.2913V10.808H25.3873V0.424011H23.9573L15.6193 10.676V12.172H23.8913V16Z" fill="white"/>
<path d="M31.5026 16H33.3946V13.58H31.5026V16Z" fill="white"/>
</svg>
