<svg width="112" height="45" viewBox="0 0 112 45" fill="none" xmlns="http://www.w3.org/2000/svg">
<path d="M7.34801 1.78801C8.22801 1.78801 8.97601 1.94934 9.59201 2.27201C10.208 2.58001 10.6993 3.02734 11.066 3.61401C11.4473 4.20068 11.7187 4.89734 11.88 5.70401C12.056 6.49601 12.144 7.39801 12.144 8.41001C12.144 9.40734 12.056 10.302 11.88 11.094C11.7187 11.886 11.4473 12.5753 11.066 13.162C10.6993 13.7487 10.208 14.2033 9.59201 14.526C8.97601 14.834 8.22801 14.988 7.34801 14.988C6.46801 14.988 5.72001 14.834 5.10401 14.526C4.48801 14.2033 3.98934 13.756 3.60801 13.184C3.24134 12.5973 2.97001 11.908 2.79401 11.116C2.63268 10.3093 2.55201 9.40734 2.55201 8.41001C2.55201 7.39801 2.63268 6.49601 2.79401 5.70401C2.97001 4.89734 3.24134 4.20068 3.60801 3.61401C3.98934 3.02734 4.48801 2.58001 5.10401 2.27201C5.72001 1.94934 6.46801 1.78801 7.34801 1.78801ZM7.34801 0.424011C5.36801 0.424011 3.79868 1.08401 2.64001 2.40401C1.49601 3.72401 0.924011 5.72601 0.924011 8.41001C0.924011 11.0647 1.49601 13.052 2.64001 14.372C3.79868 15.692 5.36801 16.352 7.34801 16.352C9.32801 16.352 10.89 15.692 12.034 14.372C13.1927 13.052 13.772 11.0647 13.772 8.41001C13.772 5.72601 13.1927 3.72401 12.034 2.40401C10.89 1.08401 9.32801 0.424011 7.34801 0.424011Z" fill="white"/>
<path d="M20.8993 8.60801H22.2193C22.85 8.60801 23.4073 8.65201 23.8913 8.74001C24.39 8.82801 24.83 8.98934 25.2113 9.22401C25.5927 9.44401 25.886 9.76668 26.0913 10.192C26.3113 10.6027 26.4213 11.116 26.4213 11.732C26.4213 12.1427 26.348 12.5387 26.2013 12.92C26.0693 13.3013 25.8347 13.6533 25.4973 13.976C25.1747 14.284 24.7347 14.5333 24.1773 14.724C23.62 14.9 22.9527 14.988 22.1753 14.988C20.65 14.988 19.4913 14.68 18.6993 14.064C17.9073 13.448 17.482 12.4433 17.4233 11.05H15.7953C15.81 12.766 16.338 14.0787 17.3793 14.988C18.4207 15.8973 19.9387 16.352 21.9333 16.352C22.8133 16.352 23.6127 16.264 24.3313 16.088C25.0647 15.9267 25.71 15.6627 26.2673 15.296C26.8247 14.9293 27.2573 14.4453 27.5653 13.844C27.888 13.2427 28.0493 12.524 28.0493 11.688C28.0493 10.5733 27.7193 9.67134 27.0593 8.98201C26.414 8.27801 25.5927 7.88934 24.5953 7.81601V7.77201C25.49 7.66934 26.1867 7.31734 26.6853 6.71601C27.1987 6.10001 27.4553 5.41068 27.4553 4.64801C27.4553 3.91468 27.3087 3.27668 27.0153 2.73401C26.722 2.19134 26.3187 1.75134 25.8053 1.41401C25.3067 1.06201 24.742 0.812677 24.1113 0.666011C23.4807 0.504678 22.8207 0.424011 22.1313 0.424011C21.1487 0.424011 20.2833 0.556011 19.5353 0.82001C18.7873 1.08401 18.164 1.45068 17.6653 1.92001C17.1813 2.38934 16.8147 2.93201 16.5653 3.54801C16.3307 4.16401 16.206 4.83134 16.1913 5.55001H17.8193C17.8193 4.36201 18.164 3.43801 18.8533 2.77801C19.5427 2.11801 20.6353 1.78801 22.1313 1.78801C23.2607 1.78801 24.1553 2.03001 24.8153 2.51401C25.49 2.98334 25.8273 3.69468 25.8273 4.64801C25.8273 5.61601 25.5047 6.29068 24.8593 6.67201C24.214 7.05334 23.246 7.24401 21.9553 7.24401H20.8993V8.60801Z" fill="white"/>
<path d="M31.5026 16H33.3946V13.58H31.5026V16Z" fill="white"/>
<path d="M1.05566 41.0002H9.48767V39.9122H2.23966V29.5762H1.05566V41.0002Z" fill="white"/>
<path d="M11.292 36.2322C11.356 35.7415 11.4947 35.3148 11.708 34.9522C11.932 34.5895 12.1987 34.2962 12.508 34.0722C12.828 33.8482 13.1747 33.6828 13.548 33.5762C13.932 33.4695 14.3214 33.4162 14.716 33.4162C15.58 33.4162 16.3054 33.6295 16.892 34.0562C17.212 34.2908 17.4787 34.5895 17.692 34.9522C17.9054 35.3042 18.0547 35.7308 18.14 36.2322H11.292ZM17.932 38.3442C17.7187 38.9948 17.356 39.4802 16.844 39.8002C16.332 40.1095 15.596 40.2642 14.636 40.2642C13.612 40.2642 12.796 39.9655 12.188 39.3682C11.5907 38.7708 11.292 38.0242 11.292 37.1282H19.324C19.324 36.2322 19.1854 35.4748 18.908 34.8562C18.6414 34.2375 18.2787 33.7522 17.82 33.4002C17.372 33.0482 16.876 32.7975 16.332 32.6482C15.788 32.4988 15.2227 32.4242 14.636 32.4242C13.8894 32.4242 13.228 32.5415 12.652 32.7762C12.076 33.0108 11.6014 33.3362 11.228 33.7522C10.8547 34.1575 10.572 34.6268 10.38 35.1602C10.1987 35.6828 10.108 36.2428 10.108 36.8402C10.108 37.3842 10.188 37.9175 10.348 38.4402C10.508 38.9522 10.764 39.4215 11.116 39.8482C11.4787 40.2748 11.9534 40.6162 12.54 40.8722C13.1267 41.1282 13.8254 41.2562 14.636 41.2562C15.2974 41.2562 15.884 41.1762 16.396 41.0162C16.908 40.8562 17.34 40.6428 17.692 40.3762C18.0547 40.0988 18.348 39.7895 18.572 39.4482C18.8067 39.1068 18.988 38.7388 19.116 38.3442H17.932Z" fill="white"/>
<path d="M21.667 36.2322C21.731 35.7415 21.8697 35.3148 22.083 34.9522C22.307 34.5895 22.5737 34.2962 22.883 34.0722C23.203 33.8482 23.5497 33.6828 23.923 33.5762C24.307 33.4695 24.6964 33.4162 25.091 33.4162C25.955 33.4162 26.6804 33.6295 27.267 34.0562C27.587 34.2908 27.8537 34.5895 28.067 34.9522C28.2804 35.3042 28.4297 35.7308 28.515 36.2322H21.667ZM28.307 38.3442C28.0937 38.9948 27.731 39.4802 27.219 39.8002C26.707 40.1095 25.971 40.2642 25.011 40.2642C23.987 40.2642 23.171 39.9655 22.563 39.3682C21.9657 38.7708 21.667 38.0242 21.667 37.1282H29.699C29.699 36.2322 29.5604 35.4748 29.283 34.8562C29.0164 34.2375 28.6537 33.7522 28.195 33.4002C27.747 33.0482 27.251 32.7975 26.707 32.6482C26.163 32.4988 25.5977 32.4242 25.011 32.4242C24.2644 32.4242 23.603 32.5415 23.027 32.7762C22.451 33.0108 21.9764 33.3362 21.603 33.7522C21.2297 34.1575 20.947 34.6268 20.755 35.1602C20.5737 35.6828 20.483 36.2428 20.483 36.8402C20.483 37.3842 20.563 37.9175 20.723 38.4402C20.883 38.9522 21.139 39.4215 21.491 39.8482C21.8537 40.2748 22.3284 40.6162 22.915 40.8722C23.5017 41.1282 24.2004 41.2562 25.011 41.2562C25.6724 41.2562 26.259 41.1762 26.771 41.0162C27.283 40.8562 27.715 40.6428 28.067 40.3762C28.4297 40.0988 28.723 39.7895 28.947 39.4482C29.1817 39.1068 29.363 38.7388 29.491 38.3442H28.307Z" fill="white"/>
<path d="M35.7432 41.0002H36.9272V35.4962H45.1832V41.0002H46.3672V29.5762H45.1832V34.4082H36.9272V29.5762H35.7432V41.0002Z" fill="white"/>
<path d="M51.9975 39.6082L48.6055 32.6802H47.3255L51.3735 41.0642L50.8295 42.2162C50.6482 42.6215 50.4349 42.8935 50.1895 43.0322C49.9549 43.1708 49.6189 43.2402 49.1815 43.2402C48.9575 43.2402 48.6749 43.2295 48.3335 43.2082V44.2002C48.5682 44.2215 48.9469 44.2322 49.4695 44.2322C50.1202 44.2322 50.6109 44.1148 50.9415 43.8802C51.2722 43.6562 51.5922 43.2135 51.9015 42.5522L56.4135 32.6802H55.1335L51.9975 39.6082Z" fill="white"/>
<path d="M64.2962 41.0002H65.4802V32.6802H64.2962V37.1922C64.2962 38.1628 64.0135 38.9202 63.4482 39.4642C62.8935 39.9975 62.0508 40.2642 60.9202 40.2642C60.1202 40.2642 59.5015 40.0935 59.0642 39.7522C58.6268 39.4002 58.4082 38.8295 58.4082 38.0402V32.6802H57.2242V37.8322C57.2242 38.3548 57.2828 38.8242 57.4002 39.2402C57.5282 39.6455 57.7255 40.0028 57.9922 40.3122C58.2695 40.6108 58.6428 40.8402 59.1122 41.0002C59.5815 41.1708 60.1522 41.2562 60.8242 41.2562C61.6775 41.2562 62.4135 41.0642 63.0322 40.6802C63.6615 40.2962 64.0722 39.8588 64.2642 39.3682H64.2962V41.0002Z" fill="white"/>
<path d="M74.3743 41.0002H75.5583V35.8482C75.5583 35.3255 75.4943 34.8615 75.3663 34.4562C75.249 34.0402 75.0516 33.6828 74.7743 33.3842C74.5076 33.0748 74.1396 32.8402 73.6703 32.6802C73.201 32.5095 72.6303 32.4242 71.9583 32.4242C71.105 32.4242 70.369 32.6162 69.7503 33.0002C69.1316 33.3842 68.721 33.8215 68.5183 34.3122H68.4863V32.6802H67.3023V41.0002H68.4863V36.4882C68.4863 35.5175 68.7636 34.7655 69.3183 34.2322C69.8836 33.6882 70.7316 33.4162 71.8623 33.4162C72.6623 33.4162 73.281 33.5922 73.7183 33.9442C74.1556 34.2855 74.3743 34.8508 74.3743 35.6402V41.0002Z" fill="white"/>
<path d="M86.7404 39.4482L84.1804 32.6802H82.9004L80.3884 39.4962L77.7484 32.6802H76.4684L79.7644 41.0002H81.0444L83.5244 34.3442L86.0364 41.0002H87.3164L90.6924 32.6802H89.4124L86.7404 39.4482Z" fill="white"/>
<path d="M92.4952 36.8402C92.4952 35.8162 92.8098 34.9895 93.4392 34.3602C94.0685 33.7308 94.9325 33.4162 96.0312 33.4162C97.1298 33.4162 97.9938 33.7308 98.6232 34.3602C99.2525 34.9895 99.5672 35.8162 99.5672 36.8402C99.5672 37.8642 99.2525 38.6908 98.6232 39.3202C97.9938 39.9495 97.1298 40.2642 96.0312 40.2642C94.9325 40.2642 94.0685 39.9495 93.4392 39.3202C92.8098 38.6908 92.4952 37.8642 92.4952 36.8402ZM91.3112 36.8402C91.3112 37.4268 91.4072 37.9868 91.5992 38.5202C91.8018 39.0535 92.1005 39.5282 92.4952 39.9442C92.8898 40.3495 93.3805 40.6695 93.9672 40.9042C94.5645 41.1388 95.2525 41.2562 96.0312 41.2562C96.8098 41.2562 97.4978 41.1388 98.0952 40.9042C98.6925 40.6695 99.1885 40.3495 99.5832 39.9442C99.9778 39.5282 100.271 39.0535 100.463 38.5202C100.655 37.9868 100.751 37.4268 100.751 36.8402C100.751 36.2535 100.655 35.6935 100.463 35.1602C100.271 34.6268 99.9778 34.1575 99.5832 33.7522C99.1885 33.3362 98.6925 33.0108 98.0952 32.7762C97.4978 32.5415 96.8098 32.4242 96.0312 32.4242C95.2525 32.4242 94.5645 32.5415 93.9672 32.7762C93.3805 33.0108 92.8898 33.3362 92.4952 33.7522C92.1005 34.1575 91.8018 34.6268 91.5992 35.1602C91.4072 35.6935 91.3112 36.2535 91.3112 36.8402Z" fill="white"/>
<path d="M103.183 36.8402C103.183 35.8162 103.497 34.9895 104.127 34.3602C104.756 33.7308 105.62 33.4162 106.719 33.4162C107.817 33.4162 108.681 33.7308 109.311 34.3602C109.94 34.9895 110.255 35.8162 110.255 36.8402C110.255 37.8642 109.94 38.6908 109.311 39.3202C108.681 39.9495 107.817 40.2642 106.719 40.2642C105.62 40.2642 104.756 39.9495 104.127 39.3202C103.497 38.6908 103.183 37.8642 103.183 36.8402ZM101.999 36.8402C101.999 37.4268 102.095 37.9868 102.287 38.5202C102.489 39.0535 102.788 39.5282 103.183 39.9442C103.577 40.3495 104.068 40.6695 104.655 40.9042C105.252 41.1388 105.94 41.2562 106.719 41.2562C107.497 41.2562 108.185 41.1388 108.783 40.9042C109.38 40.6695 109.876 40.3495 110.271 39.9442C110.665 39.5282 110.959 39.0535 111.151 38.5202C111.343 37.9868 111.439 37.4268 111.439 36.8402C111.439 36.2535 111.343 35.6935 111.151 35.1602C110.959 34.6268 110.665 34.1575 110.271 33.7522C109.876 33.3362 109.38 33.0108 108.783 32.7762C108.185 32.5415 107.497 32.4242 106.719 32.4242C105.94 32.4242 105.252 32.5415 104.655 32.7762C104.068 33.0108 103.577 33.3362 103.183 33.7522C102.788 34.1575 102.489 34.6268 102.287 35.1602C102.095 35.6935 101.999 36.2535 101.999 36.8402Z" fill="white"/>
</svg>
