<svg width="105" height="42" viewBox="0 0 105 42" fill="none" xmlns="http://www.w3.org/2000/svg">
<path d="M7.34783 1.78783C8.22783 1.78783 8.97583 1.94916 9.59183 2.27183C10.2078 2.57983 10.6992 3.02716 11.0658 3.61383C11.4472 4.20049 11.7185 4.89716 11.8798 5.70383C12.0558 6.49583 12.1438 7.39783 12.1438 8.40983C12.1438 9.40716 12.0558 10.3018 11.8798 11.0938C11.7185 11.8858 11.4472 12.5752 11.0658 13.1618C10.6992 13.7485 10.2078 14.2032 9.59183 14.5258C8.97583 14.8338 8.22783 14.9878 7.34783 14.9878C6.46783 14.9878 5.71983 14.8338 5.10383 14.5258C4.48783 14.2032 3.98916 13.7558 3.60783 13.1838C3.24116 12.5972 2.96983 11.9078 2.79383 11.1158C2.63249 10.3092 2.55183 9.40716 2.55183 8.40983C2.55183 7.39783 2.63249 6.49583 2.79383 5.70383C2.96983 4.89716 3.24116 4.20049 3.60783 3.61383C3.98916 3.02716 4.48783 2.57983 5.10383 2.27183C5.71983 1.94916 6.46783 1.78783 7.34783 1.78783ZM7.34783 0.423828C5.36783 0.423828 3.7985 1.08383 2.63983 2.40383C1.49583 3.72383 0.923828 5.72583 0.923828 8.40983C0.923828 11.0645 1.49583 13.0518 2.63983 14.3718C3.7985 15.6918 5.36783 16.3518 7.34783 16.3518C9.32783 16.3518 10.8898 15.6918 12.0338 14.3718C13.1925 13.0518 13.7718 11.0645 13.7718 8.40983C13.7718 5.72583 13.1925 3.72383 12.0338 2.40383C10.8898 1.08383 9.32783 0.423828 7.34783 0.423828Z" fill="white"/>
<path d="M27.7851 4.38383C27.7411 3.85583 27.6018 3.35716 27.3671 2.88783C27.1325 2.41849 26.7878 2.00049 26.3331 1.63383C25.8931 1.25249 25.3285 0.959161 24.6391 0.753828C23.9498 0.533828 23.1431 0.423828 22.2191 0.423828C21.1338 0.423828 20.1878 0.629162 19.3811 1.03983C18.5891 1.43583 17.9365 2.00783 17.4231 2.75583C16.9098 3.48916 16.5285 4.37649 16.2791 5.41783C16.0298 6.45916 15.9051 7.62516 15.9051 8.91583C15.9051 10.2652 16.0518 11.4238 16.3451 12.3918C16.6531 13.3452 17.0858 14.1152 17.6431 14.7018C18.2005 15.2738 18.8605 15.6918 19.6231 15.9558C20.4005 16.2198 21.2658 16.3518 22.2191 16.3518C23.9498 16.3518 25.3725 15.8972 26.4871 14.9878C27.6165 14.0638 28.1811 12.7658 28.1811 11.0938C28.1811 9.42183 27.6385 8.12383 26.5531 7.19983C25.4825 6.26116 24.0378 5.79183 22.2191 5.79183C21.5591 5.79183 20.9578 5.88716 20.4151 6.07783C19.8725 6.25383 19.4105 6.48849 19.0291 6.78183C18.6478 7.06049 18.3325 7.36116 18.0831 7.68383C17.8338 7.99183 17.6211 8.30716 17.4451 8.62983L17.4011 8.58583C17.4598 6.16583 17.8851 4.42783 18.6771 3.37183C19.4691 2.31583 20.6498 1.78783 22.2191 1.78783C23.4365 1.78783 24.3751 2.02249 25.0351 2.49183C25.7098 2.94649 26.0838 3.57716 26.1571 4.38383H27.7851ZM17.7971 11.0278C17.7971 10.6025 17.8631 10.1698 17.9951 9.72983C18.1418 9.28983 18.3765 8.87916 18.6991 8.49783C19.0365 8.10183 19.4911 7.77916 20.0631 7.52983C20.6498 7.28049 21.3685 7.15583 22.2191 7.15583C23.5538 7.15583 24.6098 7.52983 25.3871 8.27783C26.1645 9.01116 26.5531 9.94249 26.5531 11.0718C26.5531 12.2598 26.1425 13.2132 25.3211 13.9318C24.4998 14.6358 23.4658 14.9878 22.2191 14.9878C21.4711 14.9878 20.8111 14.8778 20.2391 14.6578C19.6671 14.4232 19.1978 14.1152 18.8311 13.7338C18.4791 13.3525 18.2151 12.9272 18.0391 12.4578C17.8778 11.9885 17.7971 11.5118 17.7971 11.0278Z" fill="white"/>
<path d="M31.5025 15.9998H33.3945V13.5798H31.5025V15.9998Z" fill="white"/>
<path d="M1.05566 41.0005H9.48767V39.9125H2.23966V29.5765H1.05566V41.0005Z" fill="white"/>
<path d="M11.292 36.2325C11.356 35.7418 11.4947 35.3151 11.708 34.9525C11.932 34.5898 12.1987 34.2965 12.508 34.0725C12.828 33.8485 13.1747 33.6831 13.548 33.5765C13.932 33.4698 14.3214 33.4165 14.716 33.4165C15.58 33.4165 16.3054 33.6298 16.892 34.0565C17.212 34.2911 17.4787 34.5898 17.692 34.9525C17.9054 35.3045 18.0547 35.7311 18.14 36.2325H11.292ZM17.932 38.3445C17.7187 38.9951 17.356 39.4805 16.844 39.8005C16.332 40.1098 15.596 40.2645 14.636 40.2645C13.612 40.2645 12.796 39.9658 12.188 39.3685C11.5907 38.7711 11.292 38.0245 11.292 37.1285H19.324C19.324 36.2325 19.1854 35.4751 18.908 34.8565C18.6414 34.2378 18.2787 33.7525 17.82 33.4005C17.372 33.0485 16.876 32.7978 16.332 32.6485C15.788 32.4991 15.2227 32.4245 14.636 32.4245C13.8894 32.4245 13.228 32.5418 12.652 32.7765C12.076 33.0111 11.6014 33.3365 11.228 33.7525C10.8547 34.1578 10.572 34.6271 10.38 35.1605C10.1987 35.6831 10.108 36.2431 10.108 36.8405C10.108 37.3845 10.188 37.9178 10.348 38.4405C10.508 38.9525 10.764 39.4218 11.116 39.8485C11.4787 40.2751 11.9534 40.6165 12.54 40.8725C13.1267 41.1285 13.8254 41.2565 14.636 41.2565C15.2974 41.2565 15.884 41.1765 16.396 41.0165C16.908 40.8565 17.34 40.6431 17.692 40.3765C18.0547 40.0991 18.348 39.7898 18.572 39.4485C18.8067 39.1071 18.988 38.7391 19.116 38.3445H17.932Z" fill="white"/>
<path d="M21.667 36.2325C21.731 35.7418 21.8697 35.3151 22.083 34.9525C22.307 34.5898 22.5737 34.2965 22.883 34.0725C23.203 33.8485 23.5497 33.6831 23.923 33.5765C24.307 33.4698 24.6964 33.4165 25.091 33.4165C25.955 33.4165 26.6804 33.6298 27.267 34.0565C27.587 34.2911 27.8537 34.5898 28.067 34.9525C28.2804 35.3045 28.4297 35.7311 28.515 36.2325H21.667ZM28.307 38.3445C28.0937 38.9951 27.731 39.4805 27.219 39.8005C26.707 40.1098 25.971 40.2645 25.011 40.2645C23.987 40.2645 23.171 39.9658 22.563 39.3685C21.9657 38.7711 21.667 38.0245 21.667 37.1285H29.699C29.699 36.2325 29.5604 35.4751 29.283 34.8565C29.0164 34.2378 28.6537 33.7525 28.195 33.4005C27.747 33.0485 27.251 32.7978 26.707 32.6485C26.163 32.4991 25.5977 32.4245 25.011 32.4245C24.2644 32.4245 23.603 32.5418 23.027 32.7765C22.451 33.0111 21.9764 33.3365 21.603 33.7525C21.2297 34.1578 20.947 34.6271 20.755 35.1605C20.5737 35.6831 20.483 36.2431 20.483 36.8405C20.483 37.3845 20.563 37.9178 20.723 38.4405C20.883 38.9525 21.139 39.4218 21.491 39.8485C21.8537 40.2751 22.3284 40.6165 22.915 40.8725C23.5017 41.1285 24.2004 41.2565 25.011 41.2565C25.6724 41.2565 26.259 41.1765 26.771 41.0165C27.283 40.8565 27.715 40.6431 28.067 40.3765C28.4297 40.0991 28.723 39.7898 28.947 39.4485C29.1817 39.1071 29.363 38.7391 29.491 38.3445H28.307Z" fill="white"/>
<path d="M36.2712 37.2565H35.0872V37.2725C35.0978 37.7951 35.1298 38.2591 35.1832 38.6645C35.2472 39.0698 35.3912 39.4751 35.6152 39.8805C35.8498 40.2858 36.2178 40.6218 36.7192 40.8885C37.2312 41.1551 37.9032 41.2885 38.7352 41.2885C39.9938 41.2885 40.9378 40.9738 41.5672 40.3445C42.2072 39.7151 42.5272 38.8671 42.5272 37.8005V29.5765H41.3432V37.4805C41.3432 38.5365 41.1298 39.2725 40.7032 39.6885C40.2872 40.0938 39.6525 40.2965 38.7992 40.2965C37.9352 40.2965 37.2952 40.0725 36.8792 39.6245C36.4738 39.1765 36.2712 38.5258 36.2712 37.6725V37.2565Z" fill="white"/>
<path d="M51.1138 37.7845C51.1138 38.1898 51.0125 38.5578 50.8098 38.8885C50.6071 39.2085 50.3351 39.4805 49.9938 39.7045C49.6525 39.9178 49.2738 40.0831 48.8578 40.2005C48.4525 40.3071 48.0471 40.3605 47.6418 40.3605C46.9271 40.3605 46.3458 40.2325 45.8978 39.9765C45.4605 39.7205 45.2418 39.2885 45.2418 38.6805C45.2418 38.2005 45.4231 37.8431 45.7858 37.6085C46.1591 37.3631 46.7031 37.2085 47.4178 37.1445L47.6898 37.1125C48.8951 37.0058 49.7058 36.9205 50.1218 36.8565C50.5485 36.7818 50.8791 36.6698 51.1138 36.5205V37.7845ZM45.5138 35.2405C45.5565 34.5898 45.8018 34.1258 46.2498 33.8485C46.7085 33.5605 47.4125 33.4165 48.3618 33.4165C49.3431 33.4165 50.0471 33.5391 50.4738 33.7845C50.9005 34.0298 51.1138 34.4511 51.1138 35.0485C51.1138 35.2725 51.0818 35.4431 51.0178 35.5605C50.9538 35.6778 50.8258 35.7738 50.6338 35.8485C50.4418 35.9231 50.1591 35.9818 49.7858 36.0245C49.4231 36.0671 48.8951 36.1098 48.2018 36.1525C47.6258 36.1845 47.1138 36.2378 46.6658 36.3125C46.2178 36.3765 45.7911 36.4991 45.3858 36.6805C44.9911 36.8511 44.6711 37.1071 44.4258 37.4485C44.1805 37.7898 44.0578 38.2271 44.0578 38.7605C44.0578 39.2085 44.1538 39.5925 44.3458 39.9125C44.5378 40.2325 44.7938 40.4938 45.1138 40.6965C45.4338 40.8885 45.7805 41.0271 46.1538 41.1125C46.5271 41.2085 46.9058 41.2565 47.2898 41.2565C47.9298 41.2565 48.4791 41.1978 48.9378 41.0805C49.3965 40.9738 49.7698 40.8351 50.0578 40.6645C50.3565 40.4831 50.5805 40.3125 50.7298 40.1525C50.8898 39.9818 51.0391 39.7951 51.1778 39.5925H51.2098C51.2098 39.7951 51.2205 39.9818 51.2418 40.1525C51.2738 40.3125 51.3325 40.4618 51.4178 40.6005C51.5031 40.7391 51.6311 40.8511 51.8018 40.9365C51.9831 41.0218 52.2125 41.0645 52.4898 41.0645C52.7245 41.0645 53.0391 41.0271 53.4338 40.9525C53.4551 40.9418 53.4711 40.9365 53.4818 40.9365V40.1365C53.2045 40.1578 52.9965 40.1685 52.8578 40.1685C52.6231 40.1685 52.4525 40.0991 52.3458 39.9605C52.2498 39.8218 52.2018 39.5818 52.2018 39.2405V34.8885C52.2018 34.0565 51.9031 33.4378 51.3058 33.0325C50.7191 32.6271 49.7485 32.4245 48.3938 32.4245C47.0391 32.4245 46.0631 32.6645 45.4658 33.1445C44.8685 33.6138 44.5218 34.3125 44.4258 35.2405H45.5138Z" fill="white"/>
<path d="M55.167 36.2325C55.231 35.7418 55.3697 35.3151 55.583 34.9525C55.807 34.5898 56.0737 34.2965 56.383 34.0725C56.703 33.8485 57.0497 33.6831 57.423 33.5765C57.807 33.4698 58.1964 33.4165 58.591 33.4165C59.455 33.4165 60.1804 33.6298 60.767 34.0565C61.087 34.2911 61.3537 34.5898 61.567 34.9525C61.7804 35.3045 61.9297 35.7311 62.015 36.2325H55.167ZM61.807 38.3445C61.5937 38.9951 61.231 39.4805 60.719 39.8005C60.207 40.1098 59.471 40.2645 58.511 40.2645C57.487 40.2645 56.671 39.9658 56.063 39.3685C55.4657 38.7711 55.167 38.0245 55.167 37.1285H63.199C63.199 36.2325 63.0604 35.4751 62.783 34.8565C62.5164 34.2378 62.1537 33.7525 61.695 33.4005C61.247 33.0485 60.751 32.7978 60.207 32.6485C59.663 32.4991 59.0977 32.4245 58.511 32.4245C57.7644 32.4245 57.103 32.5418 56.527 32.7765C55.951 33.0111 55.4764 33.3365 55.103 33.7525C54.7297 34.1578 54.447 34.6271 54.255 35.1605C54.0737 35.6831 53.983 36.2431 53.983 36.8405C53.983 37.3845 54.063 37.9178 54.223 38.4405C54.383 38.9525 54.639 39.4218 54.991 39.8485C55.3537 40.2751 55.8284 40.6165 56.415 40.8725C57.0017 41.1285 57.7004 41.2565 58.511 41.2565C59.1724 41.2565 59.759 41.1765 60.271 41.0165C60.783 40.8565 61.215 40.6431 61.567 40.3765C61.9297 40.0991 62.223 39.7898 62.447 39.4485C62.6817 39.1071 62.863 38.7391 62.991 38.3445H61.807Z" fill="white"/>
<path d="M64.646 41.0005H65.83V36.4885C65.83 35.5178 66.1074 34.7658 66.662 34.2325C67.2274 33.6885 68.0754 33.4165 69.206 33.4165C70.006 33.4165 70.6247 33.5925 71.062 33.9445C71.4994 34.2858 71.718 34.8511 71.718 35.6405V41.0005H72.902V35.8485C72.902 35.3258 72.838 34.8618 72.71 34.4565C72.5927 34.0405 72.3954 33.6831 72.118 33.3845C71.8514 33.0751 71.4834 32.8405 71.014 32.6805C70.5447 32.5098 69.974 32.4245 69.302 32.4245C68.4487 32.4245 67.7127 32.6165 67.094 33.0005C66.4754 33.3845 66.0647 33.8218 65.862 34.3125H65.83V29.4805H64.646V41.0005Z" fill="white"/>
<path d="M75.6202 36.8405C75.6202 35.8165 75.9348 34.9898 76.5642 34.3605C77.1935 33.7311 78.0575 33.4165 79.1562 33.4165C80.2548 33.4165 81.1188 33.7311 81.7482 34.3605C82.3775 34.9898 82.6922 35.8165 82.6922 36.8405C82.6922 37.8645 82.3775 38.6911 81.7482 39.3205C81.1188 39.9498 80.2548 40.2645 79.1562 40.2645C78.0575 40.2645 77.1935 39.9498 76.5642 39.3205C75.9348 38.6911 75.6202 37.8645 75.6202 36.8405ZM74.4362 36.8405C74.4362 37.4271 74.5322 37.9871 74.7242 38.5205C74.9268 39.0538 75.2255 39.5285 75.6202 39.9445C76.0148 40.3498 76.5055 40.6698 77.0922 40.9045C77.6895 41.1391 78.3775 41.2565 79.1562 41.2565C79.9348 41.2565 80.6228 41.1391 81.2202 40.9045C81.8175 40.6698 82.3135 40.3498 82.7082 39.9445C83.1028 39.5285 83.3962 39.0538 83.5882 38.5205C83.7802 37.9871 83.8762 37.4271 83.8762 36.8405C83.8762 36.2538 83.7802 35.6938 83.5882 35.1605C83.3962 34.6271 83.1028 34.1578 82.7082 33.7525C82.3135 33.3365 81.8175 33.0111 81.2202 32.7765C80.6228 32.5418 79.9348 32.4245 79.1562 32.4245C78.3775 32.4245 77.6895 32.5418 77.0922 32.7765C76.5055 33.0111 76.0148 33.3365 75.6202 33.7525C75.2255 34.1578 74.9268 34.6271 74.7242 35.1605C74.5322 35.6938 74.4362 36.2538 74.4362 36.8405Z" fill="white"/>
<path d="M86.3077 36.8405C86.3077 35.8165 86.6223 34.9898 87.2517 34.3605C87.881 33.7311 88.745 33.4165 89.8437 33.4165C90.9423 33.4165 91.8063 33.7311 92.4357 34.3605C93.065 34.9898 93.3797 35.8165 93.3797 36.8405C93.3797 37.8645 93.065 38.6911 92.4357 39.3205C91.8063 39.9498 90.9423 40.2645 89.8437 40.2645C88.745 40.2645 87.881 39.9498 87.2517 39.3205C86.6223 38.6911 86.3077 37.8645 86.3077 36.8405ZM85.1237 36.8405C85.1237 37.4271 85.2197 37.9871 85.4117 38.5205C85.6143 39.0538 85.913 39.5285 86.3077 39.9445C86.7023 40.3498 87.193 40.6698 87.7797 40.9045C88.377 41.1391 89.065 41.2565 89.8437 41.2565C90.6223 41.2565 91.3103 41.1391 91.9077 40.9045C92.505 40.6698 93.001 40.3498 93.3957 39.9445C93.7903 39.5285 94.0837 39.0538 94.2757 38.5205C94.4677 37.9871 94.5637 37.4271 94.5637 36.8405C94.5637 36.2538 94.4677 35.6938 94.2757 35.1605C94.0837 34.6271 93.7903 34.1578 93.3957 33.7525C93.001 33.3365 92.505 33.0111 91.9077 32.7765C91.3103 32.5418 90.6223 32.4245 89.8437 32.4245C89.065 32.4245 88.377 32.5418 87.7797 32.7765C87.193 33.0111 86.7023 33.3365 86.3077 33.7525C85.913 34.1578 85.6143 34.6271 85.4117 35.1605C85.2197 35.6938 85.1237 36.2538 85.1237 36.8405Z" fill="white"/>
<path d="M103.171 41.0005H104.355V35.8485C104.355 35.3258 104.291 34.8618 104.163 34.4565C104.046 34.0405 103.849 33.6831 103.571 33.3845C103.304 33.0751 102.936 32.8405 102.467 32.6805C101.998 32.5098 101.427 32.4245 100.755 32.4245C99.9018 32.4245 99.1658 32.6165 98.5472 33.0005C97.9285 33.3845 97.5178 33.8218 97.3152 34.3125H97.2832V32.6805H96.0992V41.0005H97.2832V36.4885C97.2832 35.5178 97.5605 34.7658 98.1152 34.2325C98.6805 33.6885 99.5285 33.4165 100.659 33.4165C101.459 33.4165 102.078 33.5925 102.515 33.9445C102.952 34.2858 103.171 34.8511 103.171 35.6405V41.0005Z" fill="white"/>
</svg>
