<svg width="118" height="45" viewBox="0 0 118 45" fill="none" xmlns="http://www.w3.org/2000/svg">
<path d="M2.43199 30.664H7.24799C7.98399 30.664 8.55465 30.8293 8.95999 31.16C9.36532 31.4906 9.56799 32.0613 9.56799 32.872C9.56799 33.5866 9.37599 34.1413 8.99199 34.536C8.60799 34.92 7.94665 35.112 7.00799 35.112H2.43199V30.664ZM1.24799 41H2.43199V36.2H6.87999C8.15999 36.2 9.14132 35.9173 9.82399 35.352C10.5067 34.776 10.848 33.9493 10.848 32.872C10.848 32.296 10.752 31.7946 10.56 31.368C10.3787 30.9413 10.128 30.6 9.80799 30.344C9.48799 30.0773 9.11999 29.8853 8.70399 29.768C8.29865 29.64 7.86665 29.576 7.40799 29.576H1.24799V41Z" fill="white"/>
<path d="M18.8016 37.784C18.8016 38.1893 18.7003 38.5573 18.4976 38.888C18.2949 39.208 18.0229 39.48 17.6816 39.704C17.3403 39.9173 16.9616 40.0826 16.5456 40.2C16.1403 40.3066 15.7349 40.36 15.3296 40.36C14.6149 40.36 14.0336 40.232 13.5856 39.976C13.1483 39.72 12.9296 39.288 12.9296 38.68C12.9296 38.2 13.1109 37.8426 13.4736 37.608C13.8469 37.3626 14.3909 37.208 15.1056 37.144L15.3776 37.112C16.5829 37.0053 17.3936 36.92 17.8096 36.856C18.2363 36.7813 18.5669 36.6693 18.8016 36.52V37.784ZM13.2016 35.24C13.2443 34.5893 13.4896 34.1253 13.9376 33.848C14.3963 33.56 15.1003 33.416 16.0496 33.416C17.0309 33.416 17.7349 33.5386 18.1616 33.784C18.5883 34.0293 18.8016 34.4506 18.8016 35.048C18.8016 35.272 18.7696 35.4426 18.7056 35.56C18.6416 35.6773 18.5136 35.7733 18.3216 35.848C18.1296 35.9226 17.8469 35.9813 17.4736 36.024C17.1109 36.0666 16.5829 36.1093 15.8896 36.152C15.3136 36.184 14.8016 36.2373 14.3536 36.312C13.9056 36.376 13.4789 36.4986 13.0736 36.68C12.6789 36.8506 12.3589 37.1066 12.1136 37.448C11.8683 37.7893 11.7456 38.2266 11.7456 38.76C11.7456 39.208 11.8416 39.592 12.0336 39.912C12.2256 40.232 12.4816 40.4933 12.8016 40.696C13.1216 40.888 13.4683 41.0266 13.8416 41.112C14.2149 41.208 14.5936 41.256 14.9776 41.256C15.6176 41.256 16.1669 41.1973 16.6256 41.08C17.0843 40.9733 17.4576 40.8346 17.7456 40.664C18.0443 40.4826 18.2683 40.312 18.4176 40.152C18.5776 39.9813 18.7269 39.7946 18.8656 39.592H18.8976C18.8976 39.7946 18.9083 39.9813 18.9296 40.152C18.9616 40.312 19.0203 40.4613 19.1056 40.6C19.1909 40.7386 19.3189 40.8506 19.4896 40.936C19.6709 41.0213 19.9003 41.064 20.1776 41.064C20.4123 41.064 20.7269 41.0266 21.1216 40.952C21.1429 40.9413 21.1589 40.936 21.1696 40.936V40.136C20.8923 40.1573 20.6843 40.168 20.5456 40.168C20.3109 40.168 20.1403 40.0986 20.0336 39.96C19.9376 39.8213 19.8896 39.5813 19.8896 39.24V34.888C19.8896 34.056 19.5909 33.4373 18.9936 33.032C18.4069 32.6266 17.4363 32.424 16.0816 32.424C14.7269 32.424 13.7509 32.664 13.1536 33.144C12.5563 33.6133 12.2096 34.312 12.1136 35.24H13.2016Z" fill="white"/>
<path d="M21.9589 41H23.1429V36.76C23.1429 36.1946 23.2229 35.7093 23.3829 35.304C23.5535 34.888 23.7775 34.5573 24.0549 34.312C24.3322 34.0666 24.6362 33.8906 24.9669 33.784C25.2975 33.6666 25.6335 33.608 25.9749 33.608C26.3375 33.608 26.7002 33.64 27.0629 33.704V32.488C26.8282 32.4453 26.5935 32.424 26.3589 32.424C25.8895 32.424 25.4735 32.488 25.1109 32.616C24.7589 32.7333 24.4602 32.8986 24.2149 33.112C23.9695 33.3146 23.7669 33.5386 23.6069 33.784C23.4469 34.0293 23.3029 34.296 23.1749 34.584H23.1429V32.68H21.9589V41Z" fill="white"/>
<path d="M27.8807 41H29.0647V38.024L30.9367 36.6L34.6327 41H36.2007L31.8167 35.832L35.8967 32.68H34.1367L29.0647 36.728V29.48H27.8807V41Z" fill="white"/>
<path d="M42.1934 37.256H41.0094V37.272C41.02 37.7946 41.052 38.2586 41.1054 38.664C41.1694 39.0693 41.3134 39.4746 41.5374 39.88C41.772 40.2853 42.14 40.6213 42.6414 40.888C43.1534 41.1546 43.8254 41.288 44.6574 41.288C45.916 41.288 46.86 40.9733 47.4894 40.344C48.1294 39.7146 48.4494 38.8666 48.4494 37.8V29.576H47.2654V37.48C47.2654 38.536 47.052 39.272 46.6254 39.688C46.2094 40.0933 45.5747 40.296 44.7214 40.296C43.8574 40.296 43.2174 40.072 42.8014 39.624C42.396 39.176 42.1934 38.5253 42.1934 37.672V37.256Z" fill="white"/>
<path d="M57.484 41H58.668V32.68H57.484V37.192C57.484 38.1626 57.2013 38.92 56.636 39.464C56.0813 39.9973 55.2387 40.264 54.108 40.264C53.308 40.264 52.6893 40.0933 52.252 39.752C51.8147 39.4 51.596 38.8293 51.596 38.04V32.68H50.412V37.832C50.412 38.3546 50.4707 38.824 50.588 39.24C50.716 39.6453 50.9133 40.0026 51.18 40.312C51.4573 40.6106 51.8307 40.84 52.3 41C52.7693 41.1706 53.34 41.256 54.012 41.256C54.8653 41.256 55.6013 41.064 56.22 40.68C56.8493 40.296 57.26 39.8586 57.452 39.368H57.484V41Z" fill="white"/>
<path d="M67.5621 41H68.7461V35.848C68.7461 35.3253 68.6821 34.8613 68.5541 34.456C68.4368 34.04 68.2394 33.6826 67.9621 33.384C67.6954 33.0746 67.3274 32.84 66.8581 32.68C66.3888 32.5093 65.8181 32.424 65.1461 32.424C64.2928 32.424 63.5568 32.616 62.9381 33C62.3194 33.384 61.9088 33.8213 61.7061 34.312H61.6741V32.68H60.4901V41H61.6741V36.488C61.6741 35.5173 61.9514 34.7653 62.5061 34.232C63.0714 33.688 63.9194 33.416 65.0501 33.416C65.8501 33.416 66.4688 33.592 66.9061 33.944C67.3434 34.2853 67.5621 34.8506 67.5621 35.64V41Z" fill="white"/>
<path d="M78.2962 36.664C78.2962 37.6986 77.9709 38.5146 77.3202 39.112C76.6696 39.7093 75.8429 40.008 74.8402 40.008C74.3282 40.008 73.8589 39.9493 73.4322 39.832C73.0056 39.704 72.6322 39.5066 72.3122 39.24C72.0029 38.9733 71.7576 38.6266 71.5762 38.2C71.4056 37.7626 71.3202 37.2506 71.3202 36.664C71.3202 35.6506 71.6296 34.856 72.2482 34.28C72.8669 33.704 73.6989 33.416 74.7442 33.416C75.8749 33.416 76.7496 33.7253 77.3682 34.344C77.9869 34.9626 78.2962 35.736 78.2962 36.664ZM78.2642 34.296H78.2322C77.9656 33.6773 77.5122 33.2133 76.8722 32.904C76.2429 32.584 75.5122 32.424 74.6802 32.424C73.9229 32.424 73.2562 32.536 72.6802 32.76C72.1042 32.984 71.6242 33.2986 71.2402 33.704C70.8669 34.0986 70.5896 34.552 70.4082 35.064C70.2269 35.5653 70.1362 36.0986 70.1362 36.664C70.1362 37.4426 70.2589 38.1146 70.5042 38.68C70.7602 39.2346 71.0962 39.6826 71.5122 40.024C71.9389 40.3653 72.4082 40.616 72.9202 40.776C73.4429 40.9253 73.9869 41 74.5522 41C75.0642 41 75.5229 40.9466 75.9282 40.84C76.3442 40.7226 76.7016 40.5733 77.0002 40.392C77.2989 40.2106 77.5496 40.008 77.7522 39.784C77.9549 39.56 78.1149 39.336 78.2322 39.112H78.2642V40.6C78.2642 41.592 77.9656 42.344 77.3682 42.856C76.7709 43.368 75.9229 43.624 74.8242 43.624C74.1629 43.624 73.6189 43.576 73.1922 43.48C72.7762 43.384 72.4616 43.2506 72.2482 43.08C72.0456 42.9093 71.9016 42.728 71.8162 42.536C71.7416 42.3546 71.6722 42.1146 71.6082 41.816H70.5202C70.5522 42.1253 70.6162 42.4186 70.7122 42.696C70.8189 42.984 71.0162 43.2666 71.3042 43.544C71.5922 43.832 72.0189 44.0666 72.5842 44.248C73.1602 44.4293 73.8909 44.52 74.7762 44.52C75.3736 44.52 75.9442 44.456 76.4882 44.328C77.0322 44.2106 77.5282 44.008 77.9762 43.72C78.4242 43.432 78.7816 43.0373 79.0482 42.536C79.3149 42.0346 79.4482 41.416 79.4482 40.68V32.68H78.2642V34.296Z" fill="white"/>
<path d="M94.2321 41H95.4161V35.32C95.4161 34.4346 95.1281 33.7306 94.5521 33.208C93.9761 32.6853 93.1228 32.424 91.9921 32.424C91.2241 32.424 90.5414 32.6106 89.9441 32.984C89.3574 33.3573 88.9521 33.7786 88.7281 34.248C88.5894 33.7573 88.2694 33.3306 87.7681 32.968C87.2774 32.6053 86.6054 32.424 85.7521 32.424C84.8881 32.424 84.1948 32.5893 83.6721 32.92C83.1601 33.2506 82.7548 33.6826 82.4561 34.216H82.4241V32.68H81.2401V41H82.4241V36.312C82.4241 35.384 82.6961 34.6693 83.2401 34.168C83.7841 33.6666 84.4934 33.416 85.3681 33.416C86.1361 33.416 86.7228 33.6026 87.1281 33.976C87.5334 34.3386 87.7361 34.8026 87.7361 35.368V41H88.9201V36.088C88.9201 35.2666 89.1654 34.616 89.6561 34.136C90.1574 33.656 90.8561 33.416 91.7521 33.416C92.5948 33.416 93.2188 33.608 93.6241 33.992C94.0294 34.376 94.2321 34.952 94.2321 35.72V41Z" fill="white"/>
<path d="M98.1361 36.84C98.1361 35.816 98.4508 34.9893 99.0801 34.36C99.7094 33.7306 100.573 33.416 101.672 33.416C102.771 33.416 103.635 33.7306 104.264 34.36C104.893 34.9893 105.208 35.816 105.208 36.84C105.208 37.864 104.893 38.6906 104.264 39.32C103.635 39.9493 102.771 40.264 101.672 40.264C100.573 40.264 99.7094 39.9493 99.0801 39.32C98.4508 38.6906 98.1361 37.864 98.1361 36.84ZM96.9521 36.84C96.9521 37.4266 97.0481 37.9866 97.2401 38.52C97.4428 39.0533 97.7414 39.528 98.1361 39.944C98.5308 40.3493 99.0214 40.6693 99.6081 40.904C100.205 41.1386 100.893 41.256 101.672 41.256C102.451 41.256 103.139 41.1386 103.736 40.904C104.333 40.6693 104.829 40.3493 105.224 39.944C105.619 39.528 105.912 39.0533 106.104 38.52C106.296 37.9866 106.392 37.4266 106.392 36.84C106.392 36.2533 106.296 35.6933 106.104 35.16C105.912 34.6266 105.619 34.1573 105.224 33.752C104.829 33.336 104.333 33.0106 103.736 32.776C103.139 32.5413 102.451 32.424 101.672 32.424C100.893 32.424 100.205 32.5413 99.6081 32.776C99.0214 33.0106 98.5308 33.336 98.1361 33.752C97.7414 34.1573 97.4428 34.6266 97.2401 35.16C97.0481 35.6933 96.9521 36.2533 96.9521 36.84Z" fill="white"/>
<path d="M108.824 36.84C108.824 35.816 109.138 34.9893 109.768 34.36C110.397 33.7306 111.261 33.416 112.36 33.416C113.458 33.416 114.322 33.7306 114.952 34.36C115.581 34.9893 115.896 35.816 115.896 36.84C115.896 37.864 115.581 38.6906 114.952 39.32C114.322 39.9493 113.458 40.264 112.36 40.264C111.261 40.264 110.397 39.9493 109.768 39.32C109.138 38.6906 108.824 37.864 108.824 36.84ZM107.64 36.84C107.64 37.4266 107.736 37.9866 107.928 38.52C108.13 39.0533 108.429 39.528 108.824 39.944C109.218 40.3493 109.709 40.6693 110.296 40.904C110.893 41.1386 111.581 41.256 112.36 41.256C113.138 41.256 113.826 41.1386 114.424 40.904C115.021 40.6693 115.517 40.3493 115.912 39.944C116.306 39.528 116.6 39.0533 116.792 38.52C116.984 37.9866 117.08 37.4266 117.08 36.84C117.08 36.2533 116.984 35.6933 116.792 35.16C116.6 34.6266 116.306 34.1573 115.912 33.752C115.517 33.336 115.021 33.0106 114.424 32.776C113.826 32.5413 113.138 32.424 112.36 32.424C111.581 32.424 110.893 32.5413 110.296 32.776C109.709 33.0106 109.218 33.336 108.824 33.752C108.429 34.1573 108.13 34.6266 107.928 35.16C107.736 35.6933 107.64 36.2533 107.64 36.84Z" fill="white"/>
<path d="M7.34801 1.78795C8.22801 1.78795 8.97601 1.94928 9.59201 2.27195C10.208 2.57995 10.6993 3.02728 11.066 3.61395C11.4473 4.20062 11.7187 4.89728 11.88 5.70395C12.056 6.49595 12.144 7.39795 12.144 8.40995C12.144 9.40728 12.056 10.302 11.88 11.094C11.7187 11.886 11.4473 12.5753 11.066 13.162C10.6993 13.7486 10.208 14.2033 9.59201 14.5259C8.97601 14.8339 8.22801 14.9879 7.34801 14.9879C6.46801 14.9879 5.72001 14.8339 5.10401 14.5259C4.48801 14.2033 3.98934 13.756 3.60801 13.184C3.24134 12.5973 2.97001 11.9079 2.79401 11.1159C2.63268 10.3093 2.55201 9.40728 2.55201 8.40995C2.55201 7.39795 2.63268 6.49595 2.79401 5.70395C2.97001 4.89728 3.24134 4.20062 3.60801 3.61395C3.98934 3.02728 4.48801 2.57995 5.10401 2.27195C5.72001 1.94928 6.46801 1.78795 7.34801 1.78795ZM7.34801 0.42395C5.36801 0.42395 3.79868 1.08395 2.64001 2.40395C1.49601 3.72395 0.924011 5.72595 0.924011 8.40995C0.924011 11.0646 1.49601 13.052 2.64001 14.372C3.79868 15.6919 5.36801 16.3519 7.34801 16.3519C9.32801 16.3519 10.89 15.6919 12.034 14.372C13.1927 13.052 13.772 11.0646 13.772 8.40995C13.772 5.72595 13.1927 3.72395 12.034 2.40395C10.89 1.08395 9.32801 0.42395 7.34801 0.42395Z" fill="white"/>
<path d="M16.2793 8.82795L17.7973 8.89395C18.164 8.42462 18.6627 8.00662 19.2933 7.63995C19.924 7.27328 20.7453 7.08995 21.7573 7.08995C23.2093 7.08995 24.3313 7.43462 25.1233 8.12395C25.93 8.81328 26.3333 9.78128 26.3333 11.028C26.3333 12.3333 25.9153 13.3233 25.0793 13.9979C24.258 14.6579 23.1873 14.9879 21.8673 14.9879C20.5327 14.9879 19.4987 14.7093 18.7653 14.152C18.0467 13.5946 17.592 12.7513 17.4013 11.622H15.7733C15.9493 13.118 16.5433 14.284 17.5553 15.12C18.5673 15.9413 20.0047 16.3519 21.8673 16.3519C23.0113 16.3519 23.9793 16.1906 24.7713 15.868C25.578 15.5306 26.2087 15.0979 26.6633 14.57C27.1327 14.042 27.4627 13.4773 27.6533 12.8759C27.8587 12.2599 27.9613 11.644 27.9613 11.028C27.9613 9.41462 27.4407 8.13128 26.3993 7.17795C25.358 6.20995 23.8913 5.72595 21.9993 5.72595C21.1487 5.72595 20.3787 5.87262 19.6893 6.16595C19 6.45928 18.4427 6.81128 18.0173 7.22195L17.9733 7.17795L19.0513 2.13995H26.9933V0.77595H17.8193L16.2793 8.82795Z" fill="white"/>
<path d="M31.5026 16H33.3946V13.58H31.5026V16Z" fill="white"/>
</svg>
