<svg width="122" height="45" viewBox="0 0 122 45" fill="none" xmlns="http://www.w3.org/2000/svg">
<path d="M9.98398 32.84C9.96265 32.1893 9.81865 31.6347 9.55198 31.176C9.28531 30.7067 8.92798 30.3387 8.47998 30.072C8.03198 29.7947 7.53065 29.5973 6.97598 29.48C6.42131 29.352 5.83465 29.288 5.21598 29.288C4.62931 29.288 4.06931 29.3467 3.53598 29.464C3.01331 29.5813 2.53331 29.7733 2.09598 30.04C1.66931 30.296 1.32798 30.6373 1.07198 31.064C0.826648 31.4907 0.703981 32.0027 0.703981 32.6C0.703981 33.4853 1.03998 34.1573 1.71198 34.616C2.39465 35.0747 3.45065 35.416 4.87998 35.64L5.27998 35.704C5.90931 35.8 6.42131 35.8907 6.81598 35.976C7.22131 36.0613 7.59465 36.184 7.93598 36.344C8.27731 36.4933 8.54398 36.696 8.73598 36.952C8.93865 37.208 9.03998 37.5333 9.03998 37.928C9.03998 38.3653 8.94398 38.7333 8.75198 39.032C8.55998 39.32 8.29865 39.5493 7.96798 39.72C7.63731 39.8907 7.26931 40.0133 6.86398 40.088C6.45865 40.1627 6.02131 40.2 5.55198 40.2C4.96531 40.2 4.44265 40.1573 3.98398 40.072C3.53598 39.976 3.13598 39.816 2.78398 39.592C2.43198 39.368 2.14931 39.064 1.93598 38.68C1.73331 38.2853 1.60531 37.8 1.55198 37.224H0.367981C0.410648 37.9707 0.565314 38.6053 0.831981 39.128C1.09865 39.6507 1.46131 40.072 1.91998 40.392C2.37865 40.712 2.90665 40.9413 3.50398 41.08C4.11198 41.2187 4.79465 41.288 5.55198 41.288C6.15998 41.288 6.74131 41.2293 7.29598 41.112C7.85065 40.9947 8.35731 40.8027 8.81598 40.536C9.27465 40.2587 9.63731 39.8907 9.90398 39.432C10.1813 38.9627 10.32 38.392 10.32 37.72C10.32 37.1973 10.208 36.76 9.98398 36.408C9.75998 36.0453 9.45598 35.7573 9.07198 35.544C8.68798 35.3307 8.26131 35.1653 7.79198 35.048C7.33331 34.92 6.78931 34.8027 6.15998 34.696C4.60265 34.44 3.51465 34.168 2.89598 33.88C2.28798 33.5813 1.98398 33.0853 1.98398 32.392C1.98398 31.7627 2.28265 31.272 2.87998 30.92C3.48798 30.5573 4.26665 30.376 5.21598 30.376C5.70665 30.376 6.15465 30.4187 6.55998 30.504C6.97598 30.5787 7.34398 30.7067 7.66398 30.888C7.98398 31.0693 8.23998 31.3253 8.43198 31.656C8.63465 31.976 8.75731 32.3707 8.79998 32.84H9.98398Z" fill="white"/>
<path d="M12.4955 36.84C12.4955 35.816 12.8101 34.9893 13.4395 34.36C14.0688 33.7307 14.9328 33.416 16.0315 33.416C17.1301 33.416 17.9941 33.7307 18.6235 34.36C19.2528 34.9893 19.5675 35.816 19.5675 36.84C19.5675 37.864 19.2528 38.6907 18.6235 39.32C17.9941 39.9493 17.1301 40.264 16.0315 40.264C14.9328 40.264 14.0688 39.9493 13.4395 39.32C12.8101 38.6907 12.4955 37.864 12.4955 36.84ZM11.3115 36.84C11.3115 37.4267 11.4075 37.9867 11.5995 38.52C11.8021 39.0533 12.1008 39.528 12.4955 39.944C12.8901 40.3493 13.3808 40.6693 13.9675 40.904C14.5648 41.1387 15.2528 41.256 16.0315 41.256C16.8101 41.256 17.4981 41.1387 18.0955 40.904C18.6928 40.6693 19.1888 40.3493 19.5835 39.944C19.9781 39.528 20.2715 39.0533 20.4635 38.52C20.6555 37.9867 20.7515 37.4267 20.7515 36.84C20.7515 36.2533 20.6555 35.6933 20.4635 35.16C20.2715 34.6267 19.9781 34.1573 19.5835 33.752C19.1888 33.336 18.6928 33.0107 18.0955 32.776C17.4981 32.5413 16.8101 32.424 16.0315 32.424C15.2528 32.424 14.5648 32.5413 13.9675 32.776C13.3808 33.0107 12.8901 33.336 12.4955 33.752C12.1008 34.1573 11.8021 34.6267 11.5995 35.16C11.4075 35.6933 11.3115 36.2533 11.3115 36.84Z" fill="white"/>
<path d="M29.359 41H30.543V35.848C30.543 35.3253 30.479 34.8613 30.351 34.456C30.2336 34.04 30.0363 33.6827 29.759 33.384C29.4923 33.0747 29.1243 32.84 28.655 32.68C28.1856 32.5093 27.615 32.424 26.943 32.424C26.0896 32.424 25.3536 32.616 24.735 33C24.1163 33.384 23.7056 33.8213 23.503 34.312H23.471V32.68H22.287V41H23.471V36.488C23.471 35.5173 23.7483 34.7653 24.303 34.232C24.8683 33.688 25.7163 33.416 26.847 33.416C27.647 33.416 28.2656 33.592 28.703 33.944C29.1403 34.2853 29.359 34.8507 29.359 35.64V41Z" fill="white"/>
<path d="M40.0931 36.664C40.0931 37.6987 39.7678 38.5147 39.1171 39.112C38.4664 39.7093 37.6398 40.008 36.6371 40.008C36.1251 40.008 35.6558 39.9493 35.2291 39.832C34.8024 39.704 34.4291 39.5067 34.1091 39.24C33.7998 38.9733 33.5544 38.6267 33.3731 38.2C33.2024 37.7627 33.1171 37.2507 33.1171 36.664C33.1171 35.6507 33.4264 34.856 34.0451 34.28C34.6638 33.704 35.4958 33.416 36.5411 33.416C37.6718 33.416 38.5464 33.7253 39.1651 34.344C39.7838 34.9627 40.0931 35.736 40.0931 36.664ZM40.0611 34.296H40.0291C39.7624 33.6773 39.3091 33.2133 38.6691 32.904C38.0398 32.584 37.3091 32.424 36.4771 32.424C35.7198 32.424 35.0531 32.536 34.4771 32.76C33.9011 32.984 33.4211 33.2987 33.0371 33.704C32.6638 34.0987 32.3864 34.552 32.2051 35.064C32.0238 35.5653 31.9331 36.0987 31.9331 36.664C31.9331 37.4427 32.0558 38.1147 32.3011 38.68C32.5571 39.2347 32.8931 39.6827 33.3091 40.024C33.7358 40.3653 34.2051 40.616 34.7171 40.776C35.2398 40.9253 35.7838 41 36.3491 41C36.8611 41 37.3198 40.9467 37.7251 40.84C38.1411 40.7227 38.4984 40.5733 38.7971 40.392C39.0958 40.2107 39.3464 40.008 39.5491 39.784C39.7518 39.56 39.9118 39.336 40.0291 39.112H40.0611V40.6C40.0611 41.592 39.7624 42.344 39.1651 42.856C38.5678 43.368 37.7198 43.624 36.6211 43.624C35.9598 43.624 35.4158 43.576 34.9891 43.48C34.5731 43.384 34.2584 43.2507 34.0451 43.08C33.8424 42.9093 33.6984 42.728 33.6131 42.536C33.5384 42.3547 33.4691 42.1147 33.4051 41.816H32.3171C32.3491 42.1253 32.4131 42.4187 32.5091 42.696C32.6158 42.984 32.8131 43.2667 33.1011 43.544C33.3891 43.832 33.8158 44.0667 34.3811 44.248C34.9571 44.4293 35.6878 44.52 36.5731 44.52C37.1704 44.52 37.7411 44.456 38.2851 44.328C38.8291 44.2107 39.3251 44.008 39.7731 43.72C40.2211 43.432 40.5784 43.0373 40.8451 42.536C41.1118 42.0347 41.2451 41.416 41.2451 40.68V32.68H40.0611V34.296Z" fill="white"/>
<path d="M48.1621 37.256H46.9781V37.272C46.9888 37.7947 47.0208 38.2587 47.0741 38.664C47.1381 39.0693 47.2821 39.4747 47.5061 39.88C47.7408 40.2853 48.1088 40.6213 48.6101 40.888C49.1221 41.1547 49.7941 41.288 50.6261 41.288C51.8848 41.288 52.8288 40.9733 53.4581 40.344C54.0981 39.7147 54.4181 38.8667 54.4181 37.8V29.576H53.2341V37.48C53.2341 38.536 53.0208 39.272 52.5941 39.688C52.1781 40.0933 51.5434 40.296 50.6901 40.296C49.8261 40.296 49.1861 40.072 48.7701 39.624C48.3648 39.176 48.1621 38.5253 48.1621 37.672V37.256Z" fill="white"/>
<path d="M63.4527 41H64.6367V32.68H63.4527V37.192C63.4527 38.1627 63.1701 38.92 62.6047 39.464C62.0501 39.9973 61.2074 40.264 60.0767 40.264C59.2767 40.264 58.6581 40.0933 58.2207 39.752C57.7834 39.4 57.5647 38.8293 57.5647 38.04V32.68H56.3807V37.832C56.3807 38.3547 56.4394 38.824 56.5567 39.24C56.6847 39.6453 56.8821 40.0027 57.1487 40.312C57.4261 40.6107 57.7994 40.84 58.2687 41C58.7381 41.1707 59.3087 41.256 59.9807 41.256C60.8341 41.256 61.5701 41.064 62.1887 40.68C62.8181 40.296 63.2287 39.8587 63.4207 39.368H63.4527V41Z" fill="white"/>
<path d="M73.5309 41H74.7149V35.848C74.7149 35.3253 74.6509 34.8613 74.5229 34.456C74.4055 34.04 74.2082 33.6827 73.9309 33.384C73.6642 33.0747 73.2962 32.84 72.8269 32.68C72.3575 32.5093 71.7869 32.424 71.1149 32.424C70.2615 32.424 69.5255 32.616 68.9069 33C68.2882 33.384 67.8775 33.8213 67.6749 34.312H67.6429V32.68H66.4589V41H67.6429V36.488C67.6429 35.5173 67.9202 34.7653 68.4749 34.232C69.0402 33.688 69.8882 33.416 71.0189 33.416C71.8189 33.416 72.4375 33.592 72.8749 33.944C73.3122 34.2853 73.5309 34.8507 73.5309 35.64V41Z" fill="white"/>
<path d="M84.265 36.664C84.265 37.6987 83.9397 38.5147 83.289 39.112C82.6383 39.7093 81.8116 40.008 80.809 40.008C80.297 40.008 79.8277 39.9493 79.401 39.832C78.9743 39.704 78.601 39.5067 78.281 39.24C77.9716 38.9733 77.7263 38.6267 77.545 38.2C77.3743 37.7627 77.289 37.2507 77.289 36.664C77.289 35.6507 77.5983 34.856 78.217 34.28C78.8356 33.704 79.6676 33.416 80.713 33.416C81.8436 33.416 82.7183 33.7253 83.337 34.344C83.9556 34.9627 84.265 35.736 84.265 36.664ZM84.233 34.296H84.201C83.9343 33.6773 83.481 33.2133 82.841 32.904C82.2117 32.584 81.481 32.424 80.649 32.424C79.8917 32.424 79.225 32.536 78.649 32.76C78.073 32.984 77.593 33.2987 77.209 33.704C76.8357 34.0987 76.5583 34.552 76.377 35.064C76.1957 35.5653 76.105 36.0987 76.105 36.664C76.105 37.4427 76.2276 38.1147 76.473 38.68C76.729 39.2347 77.065 39.6827 77.481 40.024C77.9077 40.3653 78.377 40.616 78.889 40.776C79.4116 40.9253 79.9556 41 80.521 41C81.033 41 81.4917 40.9467 81.897 40.84C82.313 40.7227 82.6703 40.5733 82.969 40.392C83.2676 40.2107 83.5183 40.008 83.721 39.784C83.9236 39.56 84.0837 39.336 84.201 39.112H84.233V40.6C84.233 41.592 83.9343 42.344 83.337 42.856C82.7396 43.368 81.8917 43.624 80.793 43.624C80.1317 43.624 79.5876 43.576 79.161 43.48C78.745 43.384 78.4303 43.2507 78.217 43.08C78.0143 42.9093 77.8703 42.728 77.785 42.536C77.7103 42.3547 77.641 42.1147 77.577 41.816H76.489C76.521 42.1253 76.585 42.4187 76.681 42.696C76.7877 42.984 76.985 43.2667 77.273 43.544C77.561 43.832 77.9876 44.0667 78.553 44.248C79.129 44.4293 79.8596 44.52 80.745 44.52C81.3423 44.52 81.913 44.456 82.457 44.328C83.001 44.2107 83.497 44.008 83.945 43.72C84.393 43.432 84.7503 43.0373 85.017 42.536C85.2837 42.0347 85.417 41.416 85.417 40.68V32.68H84.233V34.296Z" fill="white"/>
<path d="M96.5689 39.448L94.0089 32.68H92.7289L90.2169 39.496L87.5769 32.68H86.2969L89.5928 41H90.8729L93.3529 34.344L95.8649 41H97.1449L100.521 32.68H99.2409L96.5689 39.448Z" fill="white"/>
<path d="M102.324 36.84C102.324 35.816 102.638 34.9893 103.268 34.36C103.897 33.7307 104.761 33.416 105.86 33.416C106.958 33.416 107.822 33.7307 108.452 34.36C109.081 34.9893 109.396 35.816 109.396 36.84C109.396 37.864 109.081 38.6907 108.452 39.32C107.822 39.9493 106.958 40.264 105.86 40.264C104.761 40.264 103.897 39.9493 103.268 39.32C102.638 38.6907 102.324 37.864 102.324 36.84ZM101.14 36.84C101.14 37.4267 101.236 37.9867 101.428 38.52C101.63 39.0533 101.929 39.528 102.324 39.944C102.718 40.3493 103.209 40.6693 103.796 40.904C104.393 41.1387 105.081 41.256 105.86 41.256C106.638 41.256 107.326 41.1387 107.924 40.904C108.521 40.6693 109.017 40.3493 109.412 39.944C109.806 39.528 110.1 39.0533 110.292 38.52C110.484 37.9867 110.58 37.4267 110.58 36.84C110.58 36.2533 110.484 35.6933 110.292 35.16C110.1 34.6267 109.806 34.1573 109.412 33.752C109.017 33.336 108.521 33.0107 107.924 32.776C107.326 32.5413 106.638 32.424 105.86 32.424C105.081 32.424 104.393 32.5413 103.796 32.776C103.209 33.0107 102.718 33.336 102.324 33.752C101.929 34.1573 101.63 34.6267 101.428 35.16C101.236 35.6933 101.14 36.2533 101.14 36.84Z" fill="white"/>
<path d="M113.011 36.84C113.011 35.816 113.326 34.9893 113.955 34.36C114.584 33.7307 115.448 33.416 116.547 33.416C117.646 33.416 118.51 33.7307 119.139 34.36C119.768 34.9893 120.083 35.816 120.083 36.84C120.083 37.864 119.768 38.6907 119.139 39.32C118.51 39.9493 117.646 40.264 116.547 40.264C115.448 40.264 114.584 39.9493 113.955 39.32C113.326 38.6907 113.011 37.864 113.011 36.84ZM111.827 36.84C111.827 37.4267 111.923 37.9867 112.115 38.52C112.318 39.0533 112.616 39.528 113.011 39.944C113.406 40.3493 113.896 40.6693 114.483 40.904C115.08 41.1387 115.768 41.256 116.547 41.256C117.326 41.256 118.014 41.1387 118.611 40.904C119.208 40.6693 119.704 40.3493 120.099 39.944C120.494 39.528 120.787 39.0533 120.979 38.52C121.171 37.9867 121.267 37.4267 121.267 36.84C121.267 36.2533 121.171 35.6933 120.979 35.16C120.787 34.6267 120.494 34.1573 120.099 33.752C119.704 33.336 119.208 33.0107 118.611 32.776C118.014 32.5413 117.326 32.424 116.547 32.424C115.768 32.424 115.08 32.5413 114.483 32.776C113.896 33.0107 113.406 33.336 113.011 33.752C112.616 34.1573 112.318 34.6267 112.115 35.16C111.923 35.6933 111.827 36.2533 111.827 36.84Z" fill="white"/>
<path d="M7.34801 1.788C8.22801 1.788 8.97601 1.94933 9.59201 2.272C10.208 2.58 10.6993 3.02733 11.066 3.614C11.4473 4.20067 11.7187 4.89733 11.88 5.704C12.056 6.496 12.144 7.398 12.144 8.41C12.144 9.40733 12.056 10.302 11.88 11.094C11.7187 11.886 11.4473 12.5753 11.066 13.162C10.6993 13.7487 10.208 14.2033 9.59201 14.526C8.97601 14.834 8.22801 14.988 7.34801 14.988C6.46801 14.988 5.72001 14.834 5.10401 14.526C4.48801 14.2033 3.98934 13.756 3.60801 13.184C3.24134 12.5973 2.97001 11.908 2.79401 11.116C2.63268 10.3093 2.55201 9.40733 2.55201 8.41C2.55201 7.398 2.63268 6.496 2.79401 5.704C2.97001 4.89733 3.24134 4.20067 3.60801 3.614C3.98934 3.02733 4.48801 2.58 5.10401 2.272C5.72001 1.94933 6.46801 1.788 7.34801 1.788ZM7.34801 0.424C5.36801 0.424 3.79868 1.084 2.64001 2.404C1.49601 3.724 0.924011 5.726 0.924011 8.41C0.924011 11.0647 1.49601 13.052 2.64001 14.372C3.79868 15.692 5.36801 16.352 7.34801 16.352C9.32801 16.352 10.89 15.692 12.034 14.372C13.1927 13.052 13.772 11.0647 13.772 8.41C13.772 5.726 13.1927 3.724 12.034 2.404C10.89 1.084 9.32801 0.424 7.34801 0.424Z" fill="white"/>
<path d="M19.8873 16H21.5153V0.424H20.1513C20.034 1.06933 19.88 1.58267 19.6893 1.964C19.5133 2.34533 19.2787 2.63867 18.9853 2.844C18.692 3.03467 18.3253 3.16667 17.8853 3.24C17.46 3.29867 16.9027 3.328 16.2133 3.328H15.1353V4.56H19.8873V16Z" fill="white"/>
<path d="M26.5827 16H28.4747V13.58H26.5827V16Z" fill="white"/>
</svg>
