<svg width="84" height="84" viewBox="0 0 84 84" fill="none" xmlns="http://www.w3.org/2000/svg">
<g filter="url(#filter0_f_240_637)">
<path fill-rule="evenodd" clip-rule="evenodd" d="M72 26C72 29.2709 67.2887 32.1751 60.0048 33.9995C67.2887 35.824 72 38.7282 72 41.9991C72 45.2706 67.287 48.1752 60.0008 49.9996C67.287 51.824 72 54.7286 72 58.0001C72 63.523 58.5685 68.0001 42 68.0001C25.4315 68.0001 12 63.523 12 58.0001C12 54.7286 16.713 51.824 23.9992 49.9996C16.713 48.1752 12 45.2706 12 41.9991C12 38.7282 16.7113 35.824 23.9952 33.9995C16.7113 32.1751 12 29.2709 12 26C12 20.4772 25.4315 16 42 16C58.5685 16 72 20.4772 72 26Z" fill="#185EFF"/>
</g>
<g filter="url(#filter1_b_240_637)">
<path fill-rule="evenodd" clip-rule="evenodd" d="M72 26C72 29.2709 67.2887 32.1751 60.0048 33.9995C67.2887 35.824 72 38.7282 72 41.9991C72 45.2706 67.287 48.1752 60.0008 49.9996C67.287 51.824 72 54.7286 72 58.0001C72 63.523 58.5685 68.0001 42 68.0001C25.4315 68.0001 12 63.523 12 58.0001C12 54.7286 16.713 51.824 23.9992 49.9996C16.713 48.1752 12 45.2706 12 41.9991C12 38.7282 16.7113 35.824 23.9952 33.9995C16.7113 32.1751 12 29.2709 12 26C12 20.4772 25.4315 16 42 16C58.5685 16 72 20.4772 72 26Z" fill="white" fill-opacity="0.2"/>
</g>
<defs>
<filter id="filter0_f_240_637" x="4" y="8" width="76" height="68.0001" filterUnits="userSpaceOnUse" color-interpolation-filters="sRGB">
<feFlood flood-opacity="0" result="BackgroundImageFix"/>
<feBlend mode="normal" in="SourceGraphic" in2="BackgroundImageFix" result="shape"/>
<feGaussianBlur stdDeviation="4" result="effect1_foregroundBlur_240_637"/>
</filter>
<filter id="filter1_b_240_637" x="4" y="8" width="76" height="68.0001" filterUnits="userSpaceOnUse" color-interpolation-filters="sRGB">
<feFlood flood-opacity="0" result="BackgroundImageFix"/>
<feGaussianBlur in="BackgroundImageFix" stdDeviation="4"/>
<feComposite in2="SourceAlpha" operator="in" result="effect1_backgroundBlur_240_637"/>
<feBlend mode="normal" in="SourceGraphic" in2="effect1_backgroundBlur_240_637" result="shape"/>
</filter>
</defs>
</svg>
