<svg width="116" height="56" viewBox="0 0 116 56" fill="none" xmlns="http://www.w3.org/2000/svg">
<path d="M13.1239 14.5345L16.3052 12.6136C15.9451 12.0134 15.2848 11.203 14.3244 10.5728C12.6437 9.46231 10.6628 9.28223 9.40228 9.40228C7.81161 9.58236 5.8908 10.2727 4.96041 12.1034C4.2401 13.8442 4.60025 15.825 5.59067 16.9355C5.86079 17.2356 6.371 17.7158 7.03128 18.106C7.5415 18.4661 8.32183 18.8563 9.01212 19.0364L10.0025 19.3665C12.1334 19.9067 12.4936 20.1768 12.7637 20.477C12.9738 20.7171 13.0038 20.7171 12.8237 21.0172C12.7037 21.2573 12.5836 21.3473 12.0734 21.6175C11.7133 21.7975 11.3831 21.8876 11.083 21.8876C10.0025 21.9776 9.46231 21.8576 8.47189 21.2573C7.7816 20.8071 7.51148 20.2069 7.3014 19.8167L4 21.4974C4.15006 21.8275 4.84036 23.3882 6.49105 24.4386C8.05171 25.369 9.58236 25.7592 11.3531 25.6091C12.1034 25.5491 13.0638 25.279 13.8142 24.9188C14.8346 24.3486 15.5849 23.7484 16.1251 22.7879C17.0855 20.8971 16.4853 19.0364 15.5249 17.9859C14.8646 17.2656 13.7541 16.5153 11.023 15.765L10.0626 15.4648C9.70241 15.3748 9.37227 15.1947 8.95209 14.9246C8.56193 14.7145 8.5019 14.6245 8.41187 14.4744C8.20178 14.2944 8.14175 14.2043 8.32183 13.6941C8.59194 13.3039 9.07215 13.1839 9.76244 13.1239C10.5728 13.0338 11.4431 13.1239 12.2835 13.6941C12.7337 13.9942 12.9138 14.2043 13.1239 14.5345Z" fill="white"/>
<path d="M26.2772 22.3378C23.9962 22.3378 22.0454 20.3569 22.0454 17.7158C22.0454 15.1047 23.9962 13.1239 26.2772 13.1239C28.5581 13.1239 30.5089 15.1047 30.5089 17.7158C30.5089 20.3569 28.5581 22.3378 26.2772 22.3378ZM18.744 17.7158C18.744 22.0376 22.0454 25.7292 26.2772 25.7292C30.539 25.7292 33.8103 22.0376 33.8103 17.7158C33.8103 13.394 30.539 9.70241 26.2772 9.70241C22.0454 9.70241 18.744 13.394 18.744 17.7158Z" fill="white"/>
<path d="M45.1533 22.4578C42.8423 22.4578 40.8314 20.3869 40.8314 17.6858C40.8314 15.0147 42.8423 12.9738 45.1533 12.9738C47.4642 12.9738 49.5051 15.0147 49.5051 17.6858C49.5051 20.3869 47.4642 22.4578 45.1533 22.4578ZM37.0799 33.1123H40.6814V23.2081C41.7918 25.189 44.3429 25.7292 45.4234 25.7292C49.6552 25.7292 52.9866 22.0376 52.9866 17.6858C52.9866 13.394 49.6552 9.6724 45.4234 9.6724C44.3729 9.6724 41.7918 10.2727 40.6814 12.1635V9.6724H37.0799V33.1123Z" fill="white"/>
<path d="M65.4984 24.0785L62.9173 21.3773C62.4971 21.7975 62.347 21.8876 61.9268 21.8876C61.1165 21.8876 60.6663 21.4374 60.6663 20.477V12.6437H64.8381V9.16218H60.6663V4H56.9447V9.16218H54.2136V12.6437H56.9447V20.477C56.9447 23.2081 59.3157 25.6091 61.9268 25.6091C63.3374 25.6091 64.5379 24.9789 65.4984 24.0785Z" fill="white"/>
<path d="M25.3991 43.4997V52.2635H28.9706V43.2897C28.9706 38.8178 25.9093 36.4468 22.3378 36.4468C19.9067 36.4468 18.256 38.1575 17.2056 39.5981C16.1551 37.7373 14.8046 36.4468 12.3135 36.4468C10.6328 36.4468 9.13217 37.2271 8.41187 38.7878V36.4468H4.84036V52.2635H8.41187V43.4697C8.41187 41.4289 9.97253 40.0483 11.8933 40.0483C14.1443 40.0483 15.1347 41.759 15.1347 43.4997V52.2635H18.6762V43.4997C18.6762 41.1588 20.1468 40.0183 22.0977 40.0183C23.9284 40.0183 25.3991 41.759 25.3991 43.4997Z" fill="white"/>
<path d="M39.5906 49.0821C37.3396 49.0821 35.3588 47.1313 35.3588 44.5202C35.3588 41.9091 37.3396 39.9282 39.5906 39.9282C41.8115 39.9282 43.7924 41.9091 43.8224 44.5202C43.7924 47.1313 41.8115 49.0821 39.5906 49.0821ZM31.7573 44.5202C31.7573 48.812 35.0887 52.5036 39.2905 52.5036C41.0012 52.5036 42.7419 51.7232 44.0025 50.0125V52.2635H47.604V36.4468H44.0025V38.9978C42.7419 37.3171 41.0012 36.5368 39.2905 36.5368C35.0887 36.5368 31.7573 40.1983 31.7573 44.5202Z" fill="white"/>
<path d="M54.419 29.3338H50.8475V52.3535H54.419V48.3618L56.4298 45.9608L60.6616 52.3535H64.7734L58.7408 43.4697L64.9835 36.5368H60.4815L54.419 43.3197V29.3338Z" fill="white"/>
<path d="M76.6434 42.6894H68.3599C69.1402 40.8586 70.9109 39.7782 72.5617 39.7782C74.2123 39.7782 75.803 40.8286 76.6434 42.6894ZM64.9084 44.3701C64.9084 48.6919 68.2698 52.3535 72.5617 52.3535C77.1236 52.3535 79.1644 48.6319 79.1644 48.6319L76.0131 47.2513C76.0131 47.2513 74.8426 48.9921 72.5917 48.9921C70.7309 48.9921 68.8401 47.7015 68.3899 45.7507H79.9748C79.9748 45.7507 80.395 42.8395 79.2545 40.6485C79.1945 40.4985 77.1836 36.3567 72.5617 36.3567C68.2698 36.3567 64.9084 40.0183 64.9084 44.3701Z" fill="white"/>
<path d="M86.6322 38.6077V35.7565H83.0607V52.2635H86.6322V43.7699C86.6322 41.699 88.493 39.1779 91.3442 39.1779V35.7565C89.9636 35.7565 87.6827 36.6268 86.6322 38.6077Z" fill="white"/>
<path d="M101.875 41.1888L105.056 39.268C104.696 38.6677 104.036 37.8574 103.075 37.2271C101.394 36.1166 99.4136 35.9365 98.1531 36.0566C96.5624 36.2367 94.6416 36.927 93.7112 38.7577C92.9909 40.4985 93.3511 42.4793 94.3415 43.5898C94.6116 43.8899 95.1218 44.3701 95.7821 44.7603C96.2923 45.1204 97.0726 45.5106 97.7629 45.6907L98.7534 46.0208C100.884 46.561 101.244 46.8312 101.515 47.1313C101.725 47.3714 101.755 47.3714 101.575 47.6715C101.454 47.9116 101.334 48.0016 100.824 48.2718C100.464 48.4518 100.134 48.5419 99.8338 48.5419C98.7534 48.6319 98.2131 48.5119 97.2227 47.9116C96.5324 47.4614 96.2623 46.8612 96.0522 46.471L92.7508 48.1517C92.9009 48.4819 93.5912 50.0425 95.2419 51.093C96.8025 52.0233 98.3332 52.4135 100.104 52.2635C100.854 52.2034 101.815 51.9333 102.565 51.5732C103.585 51.0029 104.336 50.4027 104.876 49.4423C105.836 47.5515 105.236 45.6907 104.276 44.6402C103.615 43.9199 102.505 43.1696 99.7738 42.4193L98.8134 42.1192C98.4532 42.0291 98.1231 41.849 97.7029 41.5789C97.3127 41.3688 97.2527 41.2788 97.1627 41.1287C96.9526 40.9487 96.8926 40.8586 97.0726 40.3484C97.3428 39.9582 97.823 39.8382 98.5133 39.7782C99.3236 39.6881 100.194 39.7782 101.034 40.3484C101.485 40.6485 101.665 40.8586 101.875 41.1888Z" fill="white"/>
<path d="M108.201 48.9921V52.5636H111.893V48.9921H108.201Z" fill="white"/>
</svg>
