<svg width="315" height="138" viewBox="0 0 315 138" fill="none" xmlns="http://www.w3.org/2000/svg">
<g clip-path="url(#clip0_240_571)">
<path fill-rule="evenodd" clip-rule="evenodd" d="M211.804 91.2059C212.115 91.4013 212.423 91.606 212.726 91.8205C217.34 95.0884 220.751 100.543 220.152 108.954L216.561 108.698C217.069 101.573 214.258 97.3166 210.645 94.7583C206.958 92.1469 202.301 91.2258 199.107 91.2057L199 91.2059L199 91.2053L199 87.606L199 87.6054L199.107 87.6056C202.305 87.5856 206.964 86.6728 210.652 84.0869C214.264 81.5543 217.068 77.3479 216.561 70.3088L220.152 70.0506C220.752 78.3926 217.333 83.7992 212.719 87.0345C212.435 87.2334 212.148 87.4238 211.857 87.606L248.716 87.606L248.716 91.2059L211.804 91.2059ZM234.997 64.9193C235.281 64.7201 235.569 64.5294 235.861 64.3469L199 64.3469L199 60.747L235.91 60.747C235.599 60.5519 235.292 60.3475 234.99 60.1334C230.376 56.8655 226.965 51.4112 227.564 43.0003L231.155 43.2559C230.647 50.3813 233.458 54.6373 237.071 57.1955C240.758 59.8069 245.415 60.728 248.609 60.7482L247.94 60.8793L247.94 60.8988L248.716 60.7486L248.716 60.7486L248.716 64.3485L248.609 64.3482C245.411 64.3682 240.752 65.2811 237.064 67.867C233.452 70.3996 230.648 74.606 231.155 81.6451L227.564 81.9033C226.964 73.5613 230.383 68.1546 234.997 64.9193ZM248.716 60.7486L248.609 60.7482L248.716 60.7479L248.716 60.7486Z" fill="#24262A"/>
<path fill-rule="evenodd" clip-rule="evenodd" d="M158.439 39.7222C162.311 41.9576 169.074 37.4922 173.545 29.7484C178.016 22.0047 178.502 13.9149 174.63 11.6795C170.758 9.44402 163.995 13.9094 159.524 21.6532C155.053 29.397 154.567 37.4867 158.439 39.7222ZM161.744 33.4604C163.516 34.4835 166.862 32.0046 169.218 27.9235C171.575 23.8425 172.048 19.7047 170.276 18.6816C168.504 17.6585 165.157 20.1374 162.801 24.2185C160.445 28.2995 159.971 32.4372 161.744 33.4604Z" fill="#C3FF62"/>
<path fill-rule="evenodd" clip-rule="evenodd" d="M91.364 35.8657L72.0092 24.73L70.211 27.846L89.2098 38.7769H67V42.3733H89.4771L70.211 53.458L72.0092 56.574L90.9132 45.6977L80.058 64.2947L83.1699 66.1056L94.2757 47.0792V69H97.8776V47.1433L108.825 66.0985L111.946 64.3018L101.181 45.6648L120.143 56.574L121.941 53.458L102.675 42.3733H125V38.7769H102.942L121.941 27.846L120.143 24.73L100.838 35.8368L112.094 16.5536L108.982 14.7427L97.8776 33.7665V12H94.2757V33.7081L83.3262 14.7498L80.206 16.5465L91.364 35.8657Z" fill="#24262A"/>
<path fill-rule="evenodd" clip-rule="evenodd" d="M155.403 39.7197C159.275 37.4843 158.79 29.3945 154.319 21.6507C149.848 13.9069 143.085 9.44155 139.213 11.677C135.341 13.9124 135.827 22.0022 140.297 29.746C144.768 37.4898 151.531 41.9552 155.403 39.7197ZM151.633 33.727C153.405 32.7039 152.931 28.5661 150.575 24.4851C148.219 20.4041 144.872 17.9251 143.1 18.9483C141.328 19.9714 141.802 24.1091 144.158 28.1902C146.514 32.2712 149.861 34.7501 151.633 33.727Z" fill="#C3FF62"/>
<path fill-rule="evenodd" clip-rule="evenodd" d="M127.715 93.9526C127.715 96.2111 124.462 98.2163 119.432 99.4761C124.462 100.736 127.715 102.741 127.715 105C127.715 107.259 124.46 109.264 119.429 110.524C124.46 111.784 127.715 113.789 127.715 116.048C127.715 119.862 118.441 122.953 107 122.953C95.5602 122.953 86.2861 119.862 86.2861 116.048C86.2861 113.789 89.5406 111.784 94.572 110.524C89.5406 109.264 86.2861 107.259 86.2861 105C86.2861 102.741 89.5391 100.736 94.5686 99.4761C89.5391 98.2163 86.2861 96.2111 86.2861 93.9526C86.2861 90.1392 95.5602 87.0479 107 87.0479C118.441 87.0479 127.715 90.1392 127.715 93.9526Z" fill="#24262A"/>
<rect x="115" y="33" width="85" height="85" rx="7" fill="#C3FF62"/>
<path d="M157.066 98C158.978 98 159.993 96.7007 159.993 94.9879C159.993 93.3933 158.978 92.094 157.066 92.094C155.095 92.094 154.02 93.3933 154.02 94.9879C154.02 96.7007 155.095 98 157.066 98ZM145 63.3315L149.181 64.8671C150.794 60.6738 153.422 58.3705 158.082 58.3705C163.458 58.3705 166.803 61.4416 166.564 66.4027C166.385 69.1195 165.19 71.4228 160.65 74.7893C156.409 77.8604 154.796 81.2859 154.856 87.0148H159.276C159.217 82.4081 160.113 80.6362 163.279 78.3329C168.774 74.2577 170.805 70.4779 170.984 66.6389C171.343 59.3154 165.548 54 158.082 54C151.571 54 147.091 57.8389 145 63.3315Z" fill="#7CA53A"/>
</g>
<defs>
<clipPath id="clip0_240_571">
<rect width="315" height="138" fill="white"/>
</clipPath>
</defs>
</svg>
