<svg width="159" height="68" viewBox="0 0 159 68" fill="none" xmlns="http://www.w3.org/2000/svg">
<path d="M21 54.9996H31.54V53.6396H22.48V40.7196H21V54.9996Z" fill="white"/>
<path d="M41.5155 54.9996H42.9955V44.5996H41.5155V50.2396C41.5155 51.4529 41.1621 52.3996 40.4555 53.0796C39.7621 53.7463 38.7088 54.0796 37.2955 54.0796C36.2955 54.0796 35.5221 53.8663 34.9755 53.4396C34.4288 52.9996 34.1555 52.2863 34.1555 51.2996V44.5996H32.6755V51.0396C32.6755 51.6929 32.7488 52.2796 32.8955 52.7996C33.0555 53.3063 33.3021 53.7529 33.6355 54.1396C33.9821 54.5129 34.4488 54.7996 35.0355 54.9996C35.6221 55.2129 36.3355 55.3196 37.1755 55.3196C38.2421 55.3196 39.1621 55.0796 39.9355 54.5996C40.7221 54.1196 41.2355 53.5729 41.4755 52.9596H41.5155V54.9996Z" fill="white"/>
<path d="M54.3731 51.2796C54.1731 52.1329 53.7531 52.8129 53.1131 53.3196C52.4865 53.8263 51.6465 54.0796 50.5931 54.0796C49.2065 54.0796 48.1265 53.6929 47.3531 52.9196C46.5931 52.1463 46.2131 51.1063 46.2131 49.7996C46.2131 48.5329 46.5865 47.5063 47.3331 46.7196C48.0798 45.9196 49.1665 45.5196 50.5931 45.5196C51.5665 45.5196 52.3665 45.7196 52.9931 46.1196C53.6331 46.5196 54.0665 47.1463 54.2931 47.9996H55.7731C55.7065 47.5863 55.5598 47.1663 55.3331 46.7396C55.1198 46.3129 54.7998 45.9129 54.3731 45.5396C53.9598 45.1663 53.4331 44.8663 52.7931 44.6396C52.1665 44.3996 51.4331 44.2796 50.5931 44.2796C48.6998 44.2796 47.2465 44.7929 46.2331 45.8196C45.2331 46.8329 44.7331 48.1596 44.7331 49.7996C44.7331 51.4663 45.2465 52.8063 46.2731 53.8196C47.3131 54.8196 48.7531 55.3196 50.5931 55.3196C51.4731 55.3196 52.2398 55.1863 52.8931 54.9196C53.5465 54.6396 54.0731 54.2929 54.4731 53.8796C54.8731 53.4529 55.1798 53.0196 55.3931 52.5796C55.6198 52.1263 55.7731 51.6929 55.8531 51.2796H54.3731Z" fill="white"/>
<path d="M57.4997 54.9996H58.9797V51.2796L61.3197 49.4996L65.9397 54.9996H67.8997L62.4197 48.5396L67.5197 44.5996H65.3197L58.9797 49.6596V40.5996H57.4997V54.9996Z" fill="white"/>
<path d="M73.5641 53.2596L69.3241 44.5996H67.7241L72.7841 55.0796L72.1041 56.5196C71.8774 57.0263 71.6107 57.3663 71.3041 57.5396C71.0107 57.7129 70.5907 57.7996 70.0441 57.7996C69.7641 57.7996 69.4107 57.7863 68.9841 57.7596V58.9996C69.2774 59.0263 69.7507 59.0396 70.4041 59.0396C71.2174 59.0396 71.8307 58.8929 72.2441 58.5996C72.6574 58.3196 73.0574 57.7663 73.4441 56.9396L79.0841 44.5996H77.4841L73.5641 53.2596Z" fill="white"/>
<path d="M85.8438 54.9996H93.0037C93.9771 54.9996 94.8438 54.8196 95.6038 54.4596C96.3771 54.0996 97.0238 53.5996 97.5438 52.9596C98.0638 52.3063 98.4504 51.5463 98.7038 50.6796C98.9704 49.8129 99.1038 48.8729 99.1038 47.8596C99.1038 45.5929 98.5638 43.8396 97.4838 42.5996C96.4038 41.3463 94.8371 40.7196 92.7837 40.7196H85.8438V54.9996ZM87.3238 42.0796H92.7237C94.3504 42.0796 95.5504 42.5663 96.3238 43.5396C97.1104 44.4996 97.5037 45.9396 97.5037 47.8596C97.5037 48.9129 97.3771 49.8129 97.1238 50.5596C96.8838 51.3063 96.5438 51.9063 96.1038 52.3596C95.6637 52.8129 95.1571 53.1396 94.5837 53.3396C94.0238 53.5396 93.4037 53.6396 92.7237 53.6396H87.3238V42.0796Z" fill="white"/>
<path d="M101.23 54.9996H102.71V49.6996C102.71 48.9929 102.81 48.3863 103.01 47.8796C103.223 47.3596 103.503 46.9463 103.85 46.6396C104.197 46.3329 104.577 46.1129 104.99 45.9796C105.403 45.8329 105.823 45.7596 106.25 45.7596C106.703 45.7596 107.157 45.7996 107.61 45.8796V44.3596C107.317 44.3063 107.023 44.2796 106.73 44.2796C106.143 44.2796 105.623 44.3596 105.17 44.5196C104.73 44.6663 104.357 44.8729 104.05 45.1396C103.743 45.3929 103.49 45.6729 103.29 45.9796C103.09 46.2863 102.91 46.6196 102.75 46.9796H102.71V44.5996H101.23V54.9996Z" fill="white"/>
<path d="M116.912 50.9796C116.912 51.4863 116.786 51.9463 116.532 52.3596C116.279 52.7596 115.939 53.0996 115.513 53.3796C115.086 53.6463 114.613 53.8529 114.093 53.9996C113.586 54.1329 113.079 54.1996 112.573 54.1996C111.679 54.1996 110.952 54.0396 110.392 53.7196C109.846 53.3996 109.573 52.8596 109.573 52.0996C109.573 51.4996 109.799 51.0529 110.252 50.7596C110.719 50.4529 111.399 50.2596 112.293 50.1796L112.632 50.1396C114.139 50.0063 115.152 49.8996 115.672 49.8196C116.206 49.7263 116.619 49.5863 116.912 49.3996V50.9796ZM109.912 47.7996C109.966 46.9863 110.272 46.4063 110.832 46.0596C111.406 45.6996 112.286 45.5196 113.472 45.5196C114.699 45.5196 115.579 45.6729 116.112 45.9796C116.646 46.2863 116.912 46.8129 116.912 47.5596C116.912 47.8396 116.873 48.0529 116.793 48.1996C116.713 48.3463 116.553 48.4663 116.313 48.5596C116.073 48.6529 115.719 48.7263 115.252 48.7796C114.799 48.8329 114.139 48.8863 113.272 48.9396C112.552 48.9796 111.912 49.0463 111.353 49.1396C110.793 49.2196 110.259 49.3729 109.752 49.5996C109.259 49.8129 108.859 50.1329 108.552 50.5596C108.246 50.9863 108.093 51.5329 108.093 52.1996C108.093 52.7596 108.213 53.2396 108.453 53.6396C108.693 54.0396 109.012 54.3663 109.412 54.6196C109.812 54.8596 110.246 55.0329 110.713 55.1396C111.179 55.2596 111.652 55.3196 112.132 55.3196C112.933 55.3196 113.619 55.2463 114.192 55.0996C114.766 54.9663 115.233 54.7929 115.593 54.5796C115.966 54.3529 116.246 54.1396 116.433 53.9396C116.632 53.7263 116.819 53.4929 116.993 53.2396H117.032C117.032 53.4929 117.046 53.7263 117.073 53.9396C117.113 54.1396 117.186 54.3263 117.293 54.4996C117.399 54.6729 117.559 54.8129 117.772 54.9196C117.999 55.0263 118.286 55.0796 118.632 55.0796C118.926 55.0796 119.319 55.0329 119.813 54.9396C119.839 54.9263 119.859 54.9196 119.873 54.9196V53.9196C119.526 53.9463 119.266 53.9596 119.093 53.9596C118.799 53.9596 118.586 53.8729 118.453 53.6996C118.333 53.5263 118.272 53.2263 118.272 52.7996V47.3596C118.272 46.3196 117.899 45.5463 117.153 45.0396C116.419 44.5329 115.206 44.2796 113.513 44.2796C111.819 44.2796 110.599 44.5796 109.853 45.1796C109.106 45.7663 108.673 46.6396 108.552 47.7996H109.912Z" fill="white"/>
<path d="M132.559 53.0596L129.359 44.5996H127.759L124.619 53.1196L121.319 44.5996H119.719L123.839 54.9996H125.439L128.539 46.6796L131.679 54.9996H133.279L137.499 44.5996H135.899L132.559 53.0596Z" fill="white"/>
<path d="M53 23.0002H62.216V21.9122H54.184V17.6242H61.8V16.5362H54.184V12.6642H62.088V11.5762H53V23.0002Z" fill="#555961"/>
<path d="M67.1531 21.6402L63.8891 14.6802H62.6091L66.5131 23.0002H67.7931L71.6971 14.6802H70.4171L67.1531 21.6402Z" fill="#555961"/>
<path d="M73.4037 18.2322C73.4677 17.7415 73.6064 17.3148 73.8197 16.9522C74.0437 16.5895 74.3104 16.2962 74.6198 16.0722C74.9398 15.8482 75.2864 15.6828 75.6597 15.5762C76.0437 15.4695 76.4331 15.4162 76.8277 15.4162C77.6917 15.4162 78.4171 15.6295 79.0038 16.0562C79.3238 16.2908 79.5904 16.5895 79.8038 16.9522C80.0171 17.3042 80.1664 17.7308 80.2518 18.2322H73.4037ZM80.0437 20.3442C79.8304 20.9948 79.4678 21.4802 78.9557 21.8002C78.4438 22.1095 77.7078 22.2642 76.7478 22.2642C75.7238 22.2642 74.9077 21.9655 74.2997 21.3682C73.7024 20.7708 73.4037 20.0242 73.4037 19.1282H81.4357C81.4357 18.2322 81.2971 17.4748 81.0197 16.8562C80.7531 16.2375 80.3904 15.7522 79.9317 15.4002C79.4837 15.0482 78.9878 14.7975 78.4438 14.6482C77.8998 14.4988 77.3344 14.4242 76.7478 14.4242C76.0011 14.4242 75.3397 14.5415 74.7637 14.7762C74.1877 15.0108 73.7131 15.3362 73.3398 15.7522C72.9664 16.1575 72.6837 16.6268 72.4917 17.1602C72.3104 17.6828 72.2197 18.2428 72.2197 18.8402C72.2197 19.3842 72.2997 19.9175 72.4597 20.4402C72.6197 20.9522 72.8758 21.4215 73.2278 21.8482C73.5904 22.2748 74.0651 22.6162 74.6517 22.8722C75.2384 23.1282 75.9371 23.2562 76.7478 23.2562C77.4091 23.2562 77.9958 23.1762 78.5078 23.0162C79.0198 22.8562 79.4518 22.6428 79.8038 22.3762C80.1664 22.0988 80.4597 21.7895 80.6837 21.4482C80.9184 21.1068 81.0998 20.7388 81.2278 20.3442H80.0437Z" fill="#555961"/>
<path d="M89.9547 23.0002H91.1387V17.8482C91.1387 17.3255 91.0747 16.8615 90.9467 16.4562C90.8294 16.0402 90.6321 15.6828 90.3548 15.3842C90.0881 15.0748 89.7201 14.8402 89.2507 14.6802C88.7814 14.5095 88.2107 14.4242 87.5387 14.4242C86.6854 14.4242 85.9494 14.6162 85.3307 15.0002C84.7121 15.3842 84.3014 15.8215 84.0988 16.3122H84.0667V14.6802H82.8828V23.0002H84.0667V18.4882C84.0667 17.5175 84.3441 16.7655 84.8987 16.2322C85.4641 15.6882 86.3121 15.4162 87.4427 15.4162C88.2427 15.4162 88.8614 15.5922 89.2988 15.9442C89.7361 16.2855 89.9547 16.8508 89.9547 17.6402V23.0002Z" fill="#555961"/>
<path d="M93.7609 14.6802H91.9529V15.5762H93.7609V21.0642C93.7609 21.7788 93.9155 22.3015 94.2249 22.6322C94.5342 22.9628 95.1262 23.1282 96.0009 23.1282C96.4169 23.1282 96.8489 23.0962 97.2969 23.0322V22.0402C96.9982 22.1042 96.6089 22.1362 96.1289 22.1362C95.6702 22.1362 95.3555 22.0562 95.1849 21.8962C95.0249 21.7255 94.9449 21.4535 94.9449 21.0802V15.5762H97.2969V14.6802H94.9449V12.0562H93.7609V14.6802Z" fill="#555961"/>
<path d="M103.807 23.0002H105.183V21.2402H103.807V23.0002ZM104.143 20.0402H104.847L105.135 14.6002V11.5762H103.855V14.6002L104.143 20.0402Z" fill="#555961"/>
</svg>
