<svg width="84" height="84" viewBox="0 0 84 84" fill="none" xmlns="http://www.w3.org/2000/svg">
<g filter="url(#filter0_f_240_620)">
<path fill-rule="evenodd" clip-rule="evenodd" d="M29.8042 57.2061C30.1155 57.4014 30.423 57.6061 30.7259 57.8206C35.3402 61.0885 38.7509 66.5428 38.1521 74.9537L34.5613 74.6981C35.0685 67.5727 32.2575 63.3167 28.6453 60.7585C24.9579 58.1471 20.3011 57.226 17.1073 57.2058L17.0001 57.2061L17.0001 57.2054L17.0001 53.6061L17.0001 53.6055L17.1074 53.6058C20.3046 53.5858 24.964 52.6729 28.6522 50.087C32.2644 47.5544 35.0676 43.348 34.5614 36.309L38.152 36.0507C38.7519 44.3927 35.3333 49.7994 30.7189 53.0347C30.4353 53.2335 30.1476 53.4239 29.8566 53.6061L66.7159 53.6061L66.7159 57.2061L29.8042 57.2061ZM52.997 30.9195C53.2812 30.7202 53.5694 30.5295 53.8609 30.347L17 30.347L17 26.7471L53.9101 26.7471C53.5994 26.5521 53.2925 26.3477 52.9901 26.1335C48.3758 22.8656 44.965 17.4113 45.5638 9.0004L49.1547 9.25605C48.6474 16.3815 51.4584 20.6374 55.0707 23.1957C58.758 25.8071 63.4148 26.7282 66.6086 26.7483L65.9395 26.8794L65.9395 26.899L66.7159 26.7487L66.7159 26.7487L66.7159 30.3486L66.6085 30.3484C63.4114 30.3684 58.7519 31.2812 55.0637 33.8671C51.4515 36.3997 48.6484 40.6062 49.1546 47.6452L45.5639 47.9034C44.964 39.5614 48.3826 34.1548 52.997 30.9195ZM66.7159 26.7487L66.6086 26.7483L66.7159 26.7481L66.7159 26.7487Z" fill="white"/>
</g>
<g filter="url(#filter1_b_240_620)">
<path fill-rule="evenodd" clip-rule="evenodd" d="M29.8042 57.2061C30.1155 57.4014 30.423 57.6061 30.7259 57.8206C35.3402 61.0885 38.7509 66.5428 38.1521 74.9537L34.5613 74.6981C35.0685 67.5727 32.2575 63.3167 28.6453 60.7585C24.9579 58.1471 20.3011 57.226 17.1073 57.2058L17.0001 57.2061L17.0001 57.2054L17.0001 53.6061L17.0001 53.6055L17.1074 53.6058C20.3046 53.5858 24.964 52.6729 28.6522 50.087C32.2644 47.5544 35.0676 43.348 34.5614 36.309L38.152 36.0507C38.7519 44.3927 35.3333 49.7994 30.7189 53.0347C30.4353 53.2335 30.1476 53.4239 29.8566 53.6061L66.7159 53.6061L66.7159 57.2061L29.8042 57.2061ZM52.997 30.9195C53.2812 30.7202 53.5694 30.5295 53.8609 30.347L17 30.347L17 26.7471L53.9101 26.7471C53.5994 26.5521 53.2925 26.3477 52.9901 26.1335C48.3758 22.8656 44.965 17.4113 45.5638 9.0004L49.1547 9.25605C48.6474 16.3815 51.4584 20.6374 55.0707 23.1957C58.758 25.8071 63.4148 26.7282 66.6086 26.7483L65.9395 26.8794L65.9395 26.899L66.7159 26.7487L66.7159 26.7487L66.7159 30.3486L66.6085 30.3484C63.4114 30.3684 58.7519 31.2812 55.0637 33.8671C51.4515 36.3997 48.6484 40.6062 49.1546 47.6452L45.5639 47.9034C44.964 39.5614 48.3826 34.1548 52.997 30.9195ZM66.7159 26.7487L66.6086 26.7483L66.7159 26.7481L66.7159 26.7487Z" fill="white" fill-opacity="0.4"/>
</g>
<defs>
<filter id="filter0_f_240_620" x="13" y="5.0004" width="57.7159" height="73.9533" filterUnits="userSpaceOnUse" color-interpolation-filters="sRGB">
<feFlood flood-opacity="0" result="BackgroundImageFix"/>
<feBlend mode="normal" in="SourceGraphic" in2="BackgroundImageFix" result="shape"/>
<feGaussianBlur stdDeviation="2" result="effect1_foregroundBlur_240_620"/>
</filter>
<filter id="filter1_b_240_620" x="13" y="5.0004" width="57.7159" height="73.9533" filterUnits="userSpaceOnUse" color-interpolation-filters="sRGB">
<feFlood flood-opacity="0" result="BackgroundImageFix"/>
<feGaussianBlur in="BackgroundImageFix" stdDeviation="2"/>
<feComposite in2="SourceAlpha" operator="in" result="effect1_backgroundBlur_240_620"/>
<feBlend mode="normal" in="SourceGraphic" in2="effect1_backgroundBlur_240_620" result="shape"/>
</filter>
</defs>
</svg>
