<svg width="205" height="58" viewBox="0 0 205 58" fill="none" xmlns="http://www.w3.org/2000/svg">
<path d="M30.24 49.7123H31.72V42.6123C31.72 41.5056 31.36 40.6256 30.64 39.9723C29.92 39.3189 28.8533 38.9923 27.44 38.9923C26.48 38.9923 25.6267 39.2256 24.88 39.6923C24.1467 40.1589 23.64 40.6856 23.36 41.2723C23.1867 40.6589 22.7867 40.1256 22.16 39.6723C21.5467 39.2189 20.7067 38.9923 19.64 38.9923C18.56 38.9923 17.6933 39.1989 17.04 39.6123C16.4 40.0256 15.8933 40.5656 15.52 41.2323H15.48V39.3123H14V49.7123H15.48V43.8523C15.48 42.6923 15.82 41.7989 16.5 41.1723C17.18 40.5456 18.0667 40.2323 19.16 40.2323C20.12 40.2323 20.8533 40.4656 21.36 40.9323C21.8667 41.3856 22.12 41.9656 22.12 42.6723V49.7123H23.6V43.5723C23.6 42.5456 23.9067 41.7323 24.52 41.1323C25.1467 40.5323 26.02 40.2323 27.14 40.2323C28.1933 40.2323 28.9733 40.4723 29.48 40.9523C29.9867 41.4323 30.24 42.1523 30.24 43.1123V49.7123Z" fill="white"/>
<path d="M33.96 49.7123H35.44V39.3123H33.96V49.7123ZM33.96 37.5123H35.44V35.3123H33.96V37.5123Z" fill="white"/>
<path d="M46.5119 49.7123H47.9919V43.2723C47.9919 42.6189 47.9119 42.0389 47.7519 41.5323C47.6052 41.0123 47.3585 40.5656 47.0119 40.1923C46.6785 39.8056 46.2185 39.5123 45.6319 39.3123C45.0452 39.0989 44.3319 38.9923 43.4919 38.9923C42.4252 38.9923 41.5052 39.2323 40.7319 39.7123C39.9585 40.1923 39.4452 40.7389 39.1919 41.3523H39.1519V39.3123H37.6719V49.7123H39.1519V44.0723C39.1519 42.8589 39.4985 41.9189 40.1919 41.2523C40.8985 40.5723 41.9585 40.2323 43.3719 40.2323C44.3719 40.2323 45.1452 40.4523 45.6919 40.8923C46.2385 41.3189 46.5119 42.0256 46.5119 43.0123V49.7123Z" fill="white"/>
<path d="M50.2295 49.7123H51.7095V39.3123H50.2295V49.7123ZM50.2295 37.5123H51.7095V35.3123H50.2295V37.5123Z" fill="white"/>
<path d="M59.7678 44.9723H65.8478V43.4923H59.7678V44.9723Z" fill="white"/>
<path d="M86.8209 44.2723C86.5543 45.6856 85.9676 46.7789 85.0609 47.5523C84.1543 48.3256 82.8809 48.7123 81.2409 48.7123C80.1876 48.7123 79.2743 48.5523 78.5009 48.2323C77.7409 47.8989 77.1209 47.4456 76.6409 46.8723C76.1609 46.2989 75.8076 45.6456 75.5809 44.9123C75.3543 44.1789 75.2409 43.3989 75.2409 42.5723C75.2409 40.5589 75.7809 39.0323 76.8609 37.9923C77.9409 36.9523 79.4009 36.4323 81.2409 36.4323C81.9076 36.4323 82.5409 36.5056 83.1409 36.6523C83.7543 36.7989 84.3076 37.0256 84.8009 37.3323C85.2943 37.6389 85.7076 38.0389 86.0409 38.5323C86.3743 39.0256 86.5943 39.5989 86.7009 40.2523H88.1809C88.0743 39.3456 87.8076 38.5589 87.3809 37.8923C86.9543 37.2256 86.4143 36.6856 85.7609 36.2723C85.1076 35.8589 84.3943 35.5589 83.6209 35.3723C82.8476 35.1723 82.0543 35.0723 81.2409 35.0723C79.9209 35.0723 78.7676 35.2989 77.7809 35.7523C76.8076 36.1923 76.0143 36.7856 75.4009 37.5323C74.7876 38.2789 74.3409 39.0923 74.0609 39.9723C73.7809 40.8389 73.6409 41.7056 73.6409 42.5723C73.6409 43.7056 73.8143 44.7389 74.1609 45.6723C74.5209 46.5923 75.0343 47.3856 75.7009 48.0523C76.3676 48.7056 77.1676 49.2056 78.1009 49.5523C79.0476 49.8989 80.0943 50.0723 81.2409 50.0723C82.2409 50.0723 83.1609 49.9256 84.0009 49.6323C84.8409 49.3256 85.5676 48.9123 86.1809 48.3923C86.7943 47.8589 87.2809 47.2389 87.6409 46.5323C88.0009 45.8256 88.2209 45.0723 88.3009 44.2723H86.8209Z" fill="white"/>
<path d="M91.3895 44.5123C91.3895 43.2323 91.7829 42.1989 92.5695 41.4123C93.3562 40.6256 94.4362 40.2323 95.8095 40.2323C97.1829 40.2323 98.2629 40.6256 99.0495 41.4123C99.8362 42.1989 100.23 43.2323 100.23 44.5123C100.23 45.7923 99.8362 46.8256 99.0495 47.6123C98.2629 48.3989 97.1829 48.7923 95.8095 48.7923C94.4362 48.7923 93.3562 48.3989 92.5695 47.6123C91.7829 46.8256 91.3895 45.7923 91.3895 44.5123ZM89.9095 44.5123C89.9095 45.2456 90.0295 45.9456 90.2695 46.6123C90.5229 47.2789 90.8962 47.8723 91.3895 48.3923C91.8829 48.8989 92.4962 49.2989 93.2295 49.5923C93.9762 49.8856 94.8362 50.0323 95.8095 50.0323C96.7829 50.0323 97.6429 49.8856 98.3895 49.5923C99.1362 49.2989 99.7562 48.8989 100.25 48.3923C100.743 47.8723 101.11 47.2789 101.35 46.6123C101.59 45.9456 101.71 45.2456 101.71 44.5123C101.71 43.7789 101.59 43.0789 101.35 42.4123C101.11 41.7456 100.743 41.1589 100.25 40.6523C99.7562 40.1323 99.1362 39.7256 98.3895 39.4323C97.6429 39.1389 96.7829 38.9923 95.8095 38.9923C94.8362 38.9923 93.9762 39.1389 93.2295 39.4323C92.4962 39.7256 91.8829 40.1323 91.3895 40.6523C90.8962 41.1589 90.5229 41.7456 90.2695 42.4123C90.0295 43.0789 89.9095 43.7789 89.9095 44.5123Z" fill="white"/>
<path d="M112.469 49.7123H113.949V43.2723C113.949 42.6189 113.869 42.0389 113.709 41.5323C113.562 41.0123 113.316 40.5656 112.969 40.1923C112.636 39.8056 112.176 39.5123 111.589 39.3123C111.002 39.0989 110.289 38.9923 109.449 38.9923C108.382 38.9923 107.462 39.2323 106.689 39.7123C105.916 40.1923 105.402 40.7389 105.149 41.3523H105.109V39.3123H103.629V49.7123H105.109V44.0723C105.109 42.8589 105.456 41.9189 106.149 41.2523C106.856 40.5723 107.916 40.2323 109.329 40.2323C110.329 40.2323 111.102 40.4523 111.649 40.8923C112.196 41.3189 112.469 42.0256 112.469 43.0123V49.7123Z" fill="white"/>
<path d="M117.227 49.7123H118.707V40.4323H121.647V39.3123H118.707V38.0923C118.707 37.4923 118.827 37.0856 119.067 36.8723C119.307 36.6589 119.76 36.5523 120.427 36.5523C120.733 36.5523 121.193 36.5789 121.807 36.6323V35.3923C121.553 35.3656 121.287 35.3456 121.007 35.3323C120.727 35.3189 120.44 35.3123 120.147 35.3123C119.147 35.3123 118.407 35.5123 117.927 35.9123C117.46 36.3123 117.227 36.9856 117.227 37.9323V39.3123H114.967V40.4323H117.227V49.7123Z" fill="white"/>
<path d="M123.655 43.7523C123.735 43.1389 123.908 42.6056 124.175 42.1523C124.455 41.6989 124.788 41.3323 125.175 41.0523C125.575 40.7723 126.008 40.5656 126.475 40.4323C126.955 40.2989 127.442 40.2323 127.935 40.2323C129.015 40.2323 129.922 40.4989 130.655 41.0323C131.055 41.3256 131.388 41.6989 131.655 42.1523C131.922 42.5923 132.108 43.1256 132.215 43.7523H123.655ZM131.955 46.3923C131.688 47.2056 131.235 47.8123 130.595 48.2123C129.955 48.5989 129.035 48.7923 127.835 48.7923C126.555 48.7923 125.535 48.4189 124.775 47.6723C124.028 46.9256 123.655 45.9923 123.655 44.8723H133.695C133.695 43.7523 133.522 42.8056 133.175 42.0323C132.842 41.2589 132.388 40.6523 131.815 40.2123C131.255 39.7723 130.635 39.4589 129.955 39.2723C129.275 39.0856 128.568 38.9923 127.835 38.9923C126.902 38.9923 126.075 39.1389 125.355 39.4323C124.635 39.7256 124.042 40.1323 123.575 40.6523C123.108 41.1589 122.755 41.7456 122.515 42.4123C122.288 43.0656 122.175 43.7656 122.175 44.5123C122.175 45.1923 122.275 45.8589 122.475 46.5123C122.675 47.1523 122.995 47.7389 123.435 48.2723C123.888 48.8056 124.482 49.2323 125.215 49.5523C125.948 49.8723 126.822 50.0323 127.835 50.0323C128.662 50.0323 129.395 49.9323 130.035 49.7323C130.675 49.5323 131.215 49.2656 131.655 48.9323C132.108 48.5856 132.475 48.1989 132.755 47.7723C133.048 47.3456 133.275 46.8856 133.435 46.3923H131.955Z" fill="white"/>
<path d="M135.504 49.7123H136.984V44.4123C136.984 43.7056 137.084 43.0989 137.284 42.5923C137.497 42.0723 137.777 41.6589 138.124 41.3523C138.471 41.0456 138.851 40.8256 139.264 40.6923C139.677 40.5456 140.097 40.4723 140.524 40.4723C140.977 40.4723 141.431 40.5123 141.884 40.5923V39.0723C141.591 39.0189 141.297 38.9923 141.004 38.9923C140.417 38.9923 139.897 39.0723 139.444 39.2323C139.004 39.3789 138.631 39.5856 138.324 39.8523C138.017 40.1056 137.764 40.3856 137.564 40.6923C137.364 40.9989 137.184 41.3323 137.024 41.6923H136.984V39.3123H135.504V49.7123Z" fill="white"/>
<path d="M144.026 43.7523C144.106 43.1389 144.28 42.6056 144.546 42.1523C144.826 41.6989 145.16 41.3323 145.546 41.0523C145.946 40.7723 146.38 40.5656 146.846 40.4323C147.326 40.2989 147.813 40.2323 148.306 40.2323C149.386 40.2323 150.293 40.4989 151.026 41.0323C151.426 41.3256 151.76 41.6989 152.026 42.1523C152.293 42.5923 152.48 43.1256 152.586 43.7523H144.026ZM152.326 46.3923C152.06 47.2056 151.606 47.8123 150.966 48.2123C150.326 48.5989 149.406 48.7923 148.206 48.7923C146.926 48.7923 145.906 48.4189 145.146 47.6723C144.4 46.9256 144.026 45.9923 144.026 44.8723H154.066C154.066 43.7523 153.893 42.8056 153.546 42.0323C153.213 41.2589 152.76 40.6523 152.186 40.2123C151.626 39.7723 151.006 39.4589 150.326 39.2723C149.646 39.0856 148.94 38.9923 148.206 38.9923C147.273 38.9923 146.446 39.1389 145.726 39.4323C145.006 39.7256 144.413 40.1323 143.946 40.6523C143.48 41.1589 143.126 41.7456 142.886 42.4123C142.66 43.0656 142.546 43.7656 142.546 44.5123C142.546 45.1923 142.646 45.8589 142.846 46.5123C143.046 47.1523 143.366 47.7389 143.806 48.2723C144.26 48.8056 144.853 49.2323 145.586 49.5523C146.32 49.8723 147.193 50.0323 148.206 50.0323C149.033 50.0323 149.766 49.9323 150.406 49.7323C151.046 49.5323 151.586 49.2656 152.026 48.9323C152.48 48.5856 152.846 48.1989 153.126 47.7723C153.42 47.3456 153.646 46.8856 153.806 46.3923H152.326Z" fill="white"/>
<path d="M164.715 49.7123H166.195V43.2723C166.195 42.6189 166.115 42.0389 165.955 41.5323C165.808 41.0123 165.562 40.5656 165.215 40.1923C164.882 39.8056 164.422 39.5123 163.835 39.3123C163.248 39.0989 162.535 38.9923 161.695 38.9923C160.628 38.9923 159.708 39.2323 158.935 39.7123C158.162 40.1923 157.648 40.7389 157.395 41.3523H157.355V39.3123H155.875V49.7123H157.355V44.0723C157.355 42.8589 157.702 41.9189 158.395 41.2523C159.102 40.5723 160.162 40.2323 161.575 40.2323C162.575 40.2323 163.348 40.4523 163.895 40.8923C164.442 41.3189 164.715 42.0256 164.715 43.0123V49.7123Z" fill="white"/>
<path d="M177.573 45.9923C177.373 46.8456 176.953 47.5256 176.313 48.0323C175.686 48.5389 174.846 48.7923 173.793 48.7923C172.406 48.7923 171.326 48.4056 170.553 47.6323C169.793 46.8589 169.413 45.8189 169.413 44.5123C169.413 43.2456 169.786 42.2189 170.533 41.4323C171.279 40.6323 172.366 40.2323 173.793 40.2323C174.766 40.2323 175.566 40.4323 176.193 40.8323C176.833 41.2323 177.266 41.8589 177.493 42.7123H178.973C178.906 42.2989 178.759 41.8789 178.533 41.4523C178.319 41.0256 177.999 40.6256 177.573 40.2523C177.159 39.8789 176.633 39.5789 175.993 39.3523C175.366 39.1123 174.633 38.9923 173.793 38.9923C171.899 38.9923 170.446 39.5056 169.433 40.5323C168.433 41.5456 167.933 42.8723 167.933 44.5123C167.933 46.1789 168.446 47.5189 169.473 48.5323C170.513 49.5323 171.953 50.0323 173.793 50.0323C174.673 50.0323 175.439 49.8989 176.093 49.6323C176.746 49.3523 177.273 49.0056 177.673 48.5923C178.073 48.1656 178.379 47.7323 178.593 47.2923C178.819 46.8389 178.973 46.4056 179.053 45.9923H177.573Z" fill="white"/>
<path d="M181.819 43.7523C181.899 43.1389 182.073 42.6056 182.339 42.1523C182.619 41.6989 182.953 41.3323 183.339 41.0523C183.739 40.7723 184.173 40.5656 184.639 40.4323C185.119 40.2989 185.606 40.2323 186.099 40.2323C187.179 40.2323 188.086 40.4989 188.819 41.0323C189.219 41.3256 189.553 41.6989 189.819 42.1523C190.086 42.5923 190.273 43.1256 190.379 43.7523H181.819ZM190.119 46.3923C189.853 47.2056 189.399 47.8123 188.759 48.2123C188.119 48.5989 187.199 48.7923 185.999 48.7923C184.719 48.7923 183.699 48.4189 182.939 47.6723C182.193 46.9256 181.819 45.9923 181.819 44.8723H191.859C191.859 43.7523 191.686 42.8056 191.339 42.0323C191.006 41.2589 190.553 40.6523 189.979 40.2123C189.419 39.7723 188.799 39.4589 188.119 39.2723C187.439 39.0856 186.733 38.9923 185.999 38.9923C185.066 38.9923 184.239 39.1389 183.519 39.4323C182.799 39.7256 182.206 40.1323 181.739 40.6523C181.273 41.1589 180.919 41.7456 180.679 42.4123C180.453 43.0656 180.339 43.7656 180.339 44.5123C180.339 45.1923 180.439 45.8589 180.639 46.5123C180.839 47.1523 181.159 47.7389 181.599 48.2723C182.053 48.8056 182.646 49.2323 183.379 49.5523C184.113 49.8723 184.986 50.0323 185.999 50.0323C186.826 50.0323 187.559 49.9323 188.199 49.7323C188.839 49.5323 189.379 49.2656 189.819 48.9323C190.273 48.5856 190.639 48.1989 190.919 47.7723C191.213 47.3456 191.439 46.8856 191.599 46.3923H190.119Z" fill="white"/>
<path d="M56.1143 14.952C56.1143 15.7093 56.2583 16.3547 56.5463 16.888C56.8449 17.4107 57.2396 17.8267 57.7303 18.136C58.2316 18.4453 58.7863 18.664 59.3943 18.792C60.0129 18.9307 60.6689 19 61.3623 19C61.9809 19 62.5783 18.936 63.1543 18.808C63.7303 18.6907 64.2529 18.488 64.7223 18.2C65.2023 17.9013 65.5809 17.512 65.8583 17.032C66.1356 16.5413 66.2743 15.9493 66.2743 15.256C66.2743 14.712 66.1516 14.2587 65.9063 13.896C65.6609 13.5227 65.3516 13.2347 64.9783 13.032C64.6156 12.8187 64.2636 12.6693 63.9223 12.584C63.5916 12.488 63.2396 12.4027 62.8663 12.328H62.8343L60.0343 11.848C59.3623 11.7307 58.8823 11.544 58.5943 11.288C58.3063 11.032 58.1623 10.7173 58.1623 10.344C58.1623 10.024 58.2369 9.74667 58.3863 9.512C58.5463 9.26667 58.7543 9.06933 59.0103 8.92C59.2663 8.76 59.5489 8.648 59.8583 8.584C60.1676 8.50933 60.4876 8.472 60.8183 8.472C61.4689 8.472 62.0076 8.536 62.4343 8.664C62.8716 8.792 63.2129 8.96267 63.4583 9.176C63.7036 9.37867 63.8796 9.59733 63.9863 9.832C64.0929 10.056 64.1676 10.3067 64.2103 10.584H65.9063C65.8636 9.92267 65.6983 9.36267 65.4103 8.904C65.1329 8.43467 64.7649 8.06133 64.3063 7.784C63.8476 7.50667 63.3409 7.30933 62.7863 7.192C62.2423 7.064 61.6609 7 61.0423 7C59.6023 7 58.4769 7.31467 57.6663 7.944C56.8663 8.57333 56.4663 9.416 56.4663 10.472C56.4663 10.9947 56.5729 11.4427 56.7863 11.816C56.9996 12.1787 57.2716 12.472 57.6023 12.696C57.9436 12.9093 58.3009 13.0747 58.6743 13.192C59.0476 13.3093 59.4423 13.4 59.8583 13.464L62.4503 13.896C63.1543 14.0133 63.6823 14.2053 64.0343 14.472C64.3969 14.728 64.5783 15.1013 64.5783 15.592C64.5783 16.2 64.2956 16.6747 63.7303 17.016C63.1649 17.3573 62.4183 17.528 61.4903 17.528C61.0209 17.528 60.5729 17.4907 60.1463 17.416C59.7196 17.3307 59.3303 17.192 58.9783 17C58.6369 16.7973 58.3596 16.5307 58.1463 16.2C57.9329 15.8587 57.8209 15.4427 57.8103 14.952H56.1143Z" fill="#555961"/>
<path d="M76.5461 15V14.792C76.5461 13.96 76.4181 13.24 76.1621 12.632C75.9061 12.0133 75.5595 11.5173 75.1221 11.144C74.6955 10.76 74.2101 10.4827 73.6661 10.312C73.1328 10.1307 72.5781 10.04 72.0021 10.04C71.2128 10.04 70.5088 10.1573 69.8901 10.392C69.2821 10.6267 68.7701 10.952 68.3541 11.368C67.9488 11.7733 67.6448 12.248 67.4421 12.792C67.2395 13.3253 67.1381 13.9013 67.1381 14.52C67.1381 15.1387 67.2395 15.72 67.4421 16.264C67.6448 16.7973 67.9488 17.272 68.3541 17.688C68.7701 18.0933 69.2821 18.4133 69.8901 18.648C70.5088 18.8827 71.2128 19 72.0021 19C72.4288 19 72.8555 18.9467 73.2821 18.84C73.7088 18.7333 74.1141 18.568 74.4981 18.344C74.8928 18.1093 75.2448 17.8107 75.5541 17.448C75.8741 17.0747 76.1301 16.648 76.3221 16.168H74.6261C74.4981 16.4453 74.3275 16.6853 74.1141 16.888C73.9115 17.08 73.6768 17.2347 73.4101 17.352C72.9728 17.5547 72.4768 17.656 71.9221 17.656C71.5595 17.656 71.2021 17.5973 70.8501 17.48C70.4981 17.3627 70.1728 17.192 69.8741 16.968C69.5861 16.7333 69.3461 16.4507 69.1541 16.12C68.9728 15.7893 68.8661 15.416 68.8341 15H76.5461ZM68.8821 13.752C68.9995 13.0267 69.3461 12.4507 69.9221 12.024C70.4981 11.5973 71.1648 11.384 71.9221 11.384C72.6901 11.384 73.3408 11.592 73.8741 12.008C74.4075 12.424 74.7328 13.0053 74.8501 13.752H68.8821Z" fill="#555961"/>
<path d="M77.698 16.072C77.7407 16.648 77.89 17.1333 78.146 17.528C78.4127 17.912 78.7487 18.2107 79.154 18.424C79.5593 18.6373 79.9967 18.7867 80.466 18.872C80.946 18.9573 81.4527 19 81.986 19C83.3087 19 84.338 18.76 85.074 18.28C85.8207 17.8 86.194 17.0853 86.194 16.136C86.194 15.528 85.9647 15.0427 85.506 14.68C85.0473 14.3067 84.3007 14.0507 83.266 13.912L80.994 13.608C80.45 13.5333 80.082 13.416 79.89 13.256C79.698 13.096 79.602 12.8667 79.602 12.568C79.602 12.3333 79.666 12.1307 79.794 11.96C79.922 11.7893 80.0927 11.656 80.306 11.56C80.5193 11.464 80.754 11.3947 81.01 11.352C81.266 11.3093 81.5327 11.288 81.81 11.288C82.5993 11.288 83.2074 11.4373 83.634 11.736C84.0714 12.024 84.3007 12.3973 84.322 12.856H85.922C85.8473 11.992 85.474 11.3093 84.802 10.808C84.13 10.296 83.138 10.04 81.826 10.04C80.642 10.04 79.7087 10.28 79.026 10.76C78.3433 11.24 78.002 11.9013 78.002 12.744C78.002 13.3627 78.2207 13.8693 78.658 14.264C79.0953 14.648 79.634 14.8827 80.274 14.968L82.914 15.32C83.522 15.4053 83.938 15.5333 84.162 15.704C84.386 15.8747 84.498 16.12 84.498 16.44C84.498 16.6 84.4553 16.76 84.37 16.92C84.2953 17.0693 84.162 17.208 83.97 17.336C83.778 17.464 83.5113 17.5653 83.17 17.64C82.8393 17.7147 82.4287 17.752 81.938 17.752C81.458 17.752 81.042 17.704 80.69 17.608C80.3487 17.5013 80.0767 17.368 79.874 17.208C79.6713 17.0373 79.522 16.856 79.426 16.664C79.3407 16.472 79.298 16.2747 79.298 16.072H77.698Z" fill="#555961"/>
<path d="M87.1824 16.072C87.2251 16.648 87.3744 17.1333 87.6304 17.528C87.8971 17.912 88.233 18.2107 88.6384 18.424C89.0437 18.6373 89.4811 18.7867 89.9504 18.872C90.4304 18.9573 90.937 19 91.4704 19C92.793 19 93.8224 18.76 94.5584 18.28C95.305 17.8 95.6784 17.0853 95.6784 16.136C95.6784 15.528 95.4491 15.0427 94.9904 14.68C94.5317 14.3067 93.785 14.0507 92.7504 13.912L90.4784 13.608C89.9344 13.5333 89.5664 13.416 89.3744 13.256C89.1824 13.096 89.0864 12.8667 89.0864 12.568C89.0864 12.3333 89.1504 12.1307 89.2784 11.96C89.4064 11.7893 89.5771 11.656 89.7904 11.56C90.0037 11.464 90.2384 11.3947 90.4944 11.352C90.7504 11.3093 91.0171 11.288 91.2944 11.288C92.0837 11.288 92.6917 11.4373 93.1184 11.736C93.5557 12.024 93.785 12.3973 93.8064 12.856H95.4064C95.3317 11.992 94.9584 11.3093 94.2864 10.808C93.6144 10.296 92.6224 10.04 91.3104 10.04C90.1264 10.04 89.1931 10.28 88.5104 10.76C87.8277 11.24 87.4864 11.9013 87.4864 12.744C87.4864 13.3627 87.705 13.8693 88.1424 14.264C88.5797 14.648 89.1184 14.8827 89.7584 14.968L92.3984 15.32C93.0064 15.4053 93.4224 15.5333 93.6464 15.704C93.8704 15.8747 93.9824 16.12 93.9824 16.44C93.9824 16.6 93.9397 16.76 93.8544 16.92C93.7797 17.0693 93.6464 17.208 93.4544 17.336C93.2624 17.464 92.9957 17.5653 92.6544 17.64C92.3237 17.7147 91.913 17.752 91.4224 17.752C90.9424 17.752 90.5264 17.704 90.1744 17.608C89.8331 17.5013 89.5611 17.368 89.3584 17.208C89.1557 17.0373 89.0064 16.856 88.9104 16.664C88.8251 16.472 88.7824 16.2747 88.7824 16.072H87.1824Z" fill="#555961"/>
<path d="M97.1468 18.712H98.7468V10.328H97.1468V18.712ZM97.1468 8.952H98.7468V7.192H97.1468V8.952Z" fill="#555961"/>
<path d="M100.326 14.52C100.326 15.1387 100.427 15.72 100.63 16.264C100.832 16.7973 101.136 17.272 101.542 17.688C101.958 18.0933 102.47 18.4133 103.078 18.648C103.696 18.8827 104.4 19 105.19 19C105.99 19 106.694 18.8827 107.302 18.648C107.91 18.4133 108.416 18.0933 108.822 17.688C109.238 17.272 109.547 16.7973 109.75 16.264C109.952 15.72 110.054 15.1387 110.054 14.52C110.054 13.9013 109.952 13.3253 109.75 12.792C109.547 12.248 109.238 11.7733 108.822 11.368C108.416 10.952 107.91 10.6267 107.302 10.392C106.694 10.1573 105.99 10.04 105.19 10.04C104.4 10.04 103.696 10.1573 103.078 10.392C102.47 10.6267 101.958 10.952 101.542 11.368C101.136 11.7733 100.832 12.248 100.63 12.792C100.427 13.3253 100.326 13.9013 100.326 14.52ZM108.358 14.52C108.358 14.9147 108.299 15.2987 108.182 15.672C108.064 16.0453 107.878 16.3813 107.622 16.68C107.376 16.9787 107.046 17.2187 106.63 17.4C106.224 17.5707 105.744 17.656 105.19 17.656C104.635 17.656 104.15 17.5707 103.734 17.4C103.328 17.2187 102.998 16.9787 102.742 16.68C102.496 16.3813 102.315 16.0453 102.198 15.672C102.08 15.2987 102.022 14.9147 102.022 14.52C102.022 14.1253 102.08 13.7413 102.198 13.368C102.315 12.9947 102.502 12.6587 102.758 12.36C103.014 12.0613 103.344 11.8267 103.75 11.656C104.155 11.4747 104.635 11.384 105.19 11.384C105.744 11.384 106.224 11.4747 106.63 11.656C107.046 11.8267 107.376 12.0613 107.622 12.36C107.878 12.6587 108.064 12.9947 108.182 13.368C108.299 13.7413 108.358 14.1253 108.358 14.52Z" fill="#555961"/>
<path d="M111.631 18.712H113.231V13.88C113.231 13.0907 113.498 12.4773 114.031 12.04C114.564 11.6027 115.215 11.384 115.983 11.384C116.826 11.384 117.45 11.5493 117.855 11.88C118.26 12.2107 118.463 12.6907 118.463 13.32V18.712H120.063V13C120.063 11.9973 119.743 11.256 119.103 10.776C118.463 10.2853 117.61 10.04 116.543 10.04C115.871 10.04 115.242 10.1627 114.655 10.408C114.079 10.6533 113.615 11.048 113.263 11.592H113.231V10.328H111.631V18.712Z" fill="#555961"/>
<path d="M127.11 13.16C127.11 13.992 127.19 14.7547 127.35 15.448C127.51 16.1413 127.766 16.7547 128.118 17.288C128.48 17.8213 128.96 18.2373 129.558 18.536C130.155 18.824 130.88 18.968 131.734 18.968C132.587 18.968 133.312 18.824 133.91 18.536C134.507 18.2373 134.982 17.8267 135.334 17.304C135.696 16.7707 135.958 16.1573 136.118 15.464C136.278 14.76 136.358 13.992 136.358 13.16C136.358 12.328 136.278 11.5653 136.118 10.872C135.958 10.168 135.696 9.55467 135.334 9.032C134.982 8.49867 134.507 8.088 133.91 7.8C133.312 7.50133 132.587 7.352 131.734 7.352C130.88 7.352 130.155 7.50133 129.558 7.8C128.96 8.088 128.48 8.49867 128.118 9.032C127.766 9.55467 127.51 10.168 127.35 10.872C127.19 11.5653 127.11 12.328 127.11 13.16ZM134.662 13.16C134.662 13.608 134.63 14.072 134.566 14.552C134.512 15.0213 134.384 15.496 134.182 15.976C133.99 16.4453 133.691 16.84 133.286 17.16C132.891 17.4693 132.374 17.624 131.734 17.624C131.094 17.624 130.571 17.4693 130.166 17.16C129.771 16.84 129.472 16.4453 129.27 15.976C129.078 15.496 128.95 15.0213 128.886 14.552C128.832 14.072 128.806 13.608 128.806 13.16C128.806 12.712 128.832 12.2533 128.886 11.784C128.95 11.304 129.078 10.8293 129.27 10.36C129.472 9.88 129.771 9.48533 130.166 9.176C130.571 8.856 131.094 8.696 131.734 8.696C132.374 8.696 132.891 8.856 133.286 9.176C133.691 9.48533 133.99 9.88 134.182 10.36C134.384 10.8293 134.512 11.304 134.566 11.784C134.63 12.2533 134.662 12.712 134.662 13.16Z" fill="#555961"/>
<path d="M140.261 18.712H141.957V7.288H140.629C140.608 7.52267 140.549 7.75733 140.453 7.992C140.368 8.216 140.208 8.43467 139.973 8.648C139.738 8.86133 139.402 9.03733 138.965 9.176C138.528 9.31467 137.973 9.384 137.301 9.384H136.917V10.632H140.261V18.712Z" fill="#555961"/>
<path d="M145.866 18.712H147.85V16.856H145.866V18.712Z" fill="#555961"/>
</svg>
