<svg width="155" height="153" viewBox="0 0 155 153" fill="none" xmlns="http://www.w3.org/2000/svg">
<g style="mix-blend-mode:overlay" opacity="0.2">
<path fill-rule="evenodd" clip-rule="evenodd" d="M81.9916 38.4112L17.3375 1.15625L10.7432 12.6003L74.179 49.1533H0V62.3613H75.085L10.7432 99.4362L17.3375 110.88L80.4378 74.5207L44.2139 136.673L55.6252 143.324L92.7168 79.6827V153H105.925V79.9124L142.479 143.299L153.921 136.7L117.992 74.3994L181.303 110.88L187.897 99.4362L123.556 62.3613H198.12V49.1533H124.462L187.897 12.6003L181.303 1.15625L116.832 38.3056L154.425 -26.1959L143.014 -32.8467L105.925 30.7904V-42H92.7168V30.5704L56.1606 -32.8195L44.7189 -26.2212L81.9916 38.4112Z" fill="black"/>
</g>
</svg>
