<svg width="139" height="121" viewBox="0 0 139 121" fill="none" xmlns="http://www.w3.org/2000/svg">
<g style="mix-blend-mode:overlay" opacity="0.2">
<path fill-rule="evenodd" clip-rule="evenodd" d="M138.847 23.1412C138.847 30.7107 127.944 37.4313 111.087 41.6534C127.944 45.8754 138.847 52.5961 138.847 60.1655C138.847 67.7359 127.941 74.4573 111.081 78.6792C127.941 82.9012 138.847 89.6225 138.847 97.1929C138.847 109.973 107.765 120.334 69.4235 120.334C31.082 120.334 0 109.973 0 97.1929C0 89.6225 10.9056 82.9012 27.7657 78.6792C10.9056 74.4573 0 67.7359 0 60.1655C0 52.5961 10.903 45.8754 27.7596 41.6534C10.903 37.4313 0 30.7107 0 23.1412C0 10.3607 31.082 0 69.4235 0C107.765 0 138.847 10.3607 138.847 23.1412Z" fill="black"/>
</g>
</svg>
