<svg width="145" height="193" viewBox="0 0 145 193" fill="none" xmlns="http://www.w3.org/2000/svg">
<g style="mix-blend-mode:overlay" opacity="0.2">
<path fill-rule="evenodd" clip-rule="evenodd" d="M37.4649 141.064C38.3768 141.637 39.2777 142.236 40.1651 142.865C53.6676 152.427 63.6484 168.388 61.8961 193L51.3883 192.252C52.8728 171.402 44.6471 158.948 34.0767 151.462C23.1653 143.734 9.35271 141.065 1.97992e-05 141.065L1.97992e-05 141.064L2.07201e-05 130.53L2.07201e-05 130.53C9.3626 130.53 23.183 127.885 34.0971 120.232C44.6671 112.821 52.8699 100.512 51.3886 79.9145L61.8959 79.1589C63.6513 103.569 53.6476 119.391 40.1447 128.858C39.3146 129.44 38.4728 129.997 37.6213 130.53L145.481 130.53L145.481 141.064L37.4649 141.064ZM105.337 64.1431C106.17 63.559 107.015 62.9999 107.87 62.465L0.000133482 62.465L0.000134403 51.9307L108.007 51.9307C107.099 51.3603 106.201 50.7625 105.316 50.1361C91.8139 40.5735 81.8331 24.613 83.5854 0.000559164L94.0931 0.748653C92.6087 21.5993 100.834 34.0533 111.405 41.5393C122.316 49.2669 136.129 51.9363 145.481 51.9363L145.481 51.9365L145.481 62.4707L145.481 62.4709C136.119 62.4709 122.298 65.1164 111.384 72.7686C100.814 80.1795 92.6116 92.4887 94.0929 113.087L83.5856 113.842C81.8302 89.4315 91.8339 73.6103 105.337 64.1431Z" fill="black"/>
</g>
</svg>
